ISO-10303-21;
HEADER;
/* Generated by software containing ST-Developer
 * from STEP Tools, Inc. (www.steptools.com) 
 */
/* OPTION: using custom renumber hook */

FILE_DESCRIPTION(
/* description */ ('STEP AP242 Edition 2',
'CAx-IF Rec.Pracs.---Representation and Presentation of Product Manufa
cturing Information (PMI)---4.0---2014-10-13',
'CAx-IF Rec.Pracs.---3D Tessellated Geometry---0.4---2014-09-14','2;1',
'CAx-IF Rec.Pracs.---User Defined Attributes---1.5---2016-08-15'),
/* implementation_level */ '2;1');

FILE_NAME(
/* name */ 'LED Carrier Parts - [o]_LED_filter',
/* time_stamp */ '2026-09-27T04:16:57Z',
/* author */ (''),
/* organization */ (''),
/* preprocessor_version */ 'ST-DEVELOPER v20',
/* originating_system */ 'ONSHAPE BY PTC INC, 1.221',
/* authorisation */ '  ');

FILE_SCHEMA (('AP242_MANAGED_MODEL_BASED_3D_ENGINEERING_MIM_LF { 1 0 10303 442 3 1 4 }'));
ENDSEC;

DATA;
#10=SHAPE_REPRESENTATION_RELATIONSHIP('','',#581,#11);
#11=ADVANCED_BREP_SHAPE_REPRESENTATION('',(#579),#913);
#12=ORIENTED_EDGE('',*,*,#164,.T.);
#13=ORIENTED_EDGE('',*,*,#165,.F.);
#14=ORIENTED_EDGE('',*,*,#166,.F.);
#15=ORIENTED_EDGE('',*,*,#167,.T.);
#16=ORIENTED_EDGE('',*,*,#168,.T.);
#17=ORIENTED_EDGE('',*,*,#169,.F.);
#18=ORIENTED_EDGE('',*,*,#170,.F.);
#19=ORIENTED_EDGE('',*,*,#165,.T.);
#20=ORIENTED_EDGE('',*,*,#171,.T.);
#21=ORIENTED_EDGE('',*,*,#172,.F.);
#22=ORIENTED_EDGE('',*,*,#173,.F.);
#23=ORIENTED_EDGE('',*,*,#169,.T.);
#24=ORIENTED_EDGE('',*,*,#174,.T.);
#25=ORIENTED_EDGE('',*,*,#175,.F.);
#26=ORIENTED_EDGE('',*,*,#176,.F.);
#27=ORIENTED_EDGE('',*,*,#172,.T.);
#28=ORIENTED_EDGE('',*,*,#177,.T.);
#29=ORIENTED_EDGE('',*,*,#178,.F.);
#30=ORIENTED_EDGE('',*,*,#179,.F.);
#31=ORIENTED_EDGE('',*,*,#175,.T.);
#32=ORIENTED_EDGE('',*,*,#180,.F.);
#33=ORIENTED_EDGE('',*,*,#181,.F.);
#34=ORIENTED_EDGE('',*,*,#182,.T.);
#35=ORIENTED_EDGE('',*,*,#178,.T.);
#36=ORIENTED_EDGE('',*,*,#183,.F.);
#37=ORIENTED_EDGE('',*,*,#184,.F.);
#38=ORIENTED_EDGE('',*,*,#185,.T.);
#39=ORIENTED_EDGE('',*,*,#181,.T.);
#40=ORIENTED_EDGE('',*,*,#186,.F.);
#41=ORIENTED_EDGE('',*,*,#187,.F.);
#42=ORIENTED_EDGE('',*,*,#188,.T.);
#43=ORIENTED_EDGE('',*,*,#184,.T.);
#44=ORIENTED_EDGE('',*,*,#189,.F.);
#45=ORIENTED_EDGE('',*,*,#190,.F.);
#46=ORIENTED_EDGE('',*,*,#191,.T.);
#47=ORIENTED_EDGE('',*,*,#192,.T.);
#48=ORIENTED_EDGE('',*,*,#193,.F.);
#49=ORIENTED_EDGE('',*,*,#194,.F.);
#50=ORIENTED_EDGE('',*,*,#195,.T.);
#51=ORIENTED_EDGE('',*,*,#190,.T.);
#52=ORIENTED_EDGE('',*,*,#196,.F.);
#53=ORIENTED_EDGE('',*,*,#197,.F.);
#54=ORIENTED_EDGE('',*,*,#198,.T.);
#55=ORIENTED_EDGE('',*,*,#194,.T.);
#56=ORIENTED_EDGE('',*,*,#199,.F.);
#57=ORIENTED_EDGE('',*,*,#200,.F.);
#58=ORIENTED_EDGE('',*,*,#201,.T.);
#59=ORIENTED_EDGE('',*,*,#197,.T.);
#60=ORIENTED_EDGE('',*,*,#202,.F.);
#61=ORIENTED_EDGE('',*,*,#203,.F.);
#62=ORIENTED_EDGE('',*,*,#204,.T.);
#63=ORIENTED_EDGE('',*,*,#200,.T.);
#64=ORIENTED_EDGE('',*,*,#205,.F.);
#65=ORIENTED_EDGE('',*,*,#206,.F.);
#66=ORIENTED_EDGE('',*,*,#207,.T.);
#67=ORIENTED_EDGE('',*,*,#203,.T.);
#68=ORIENTED_EDGE('',*,*,#208,.F.);
#69=ORIENTED_EDGE('',*,*,#192,.F.);
#70=ORIENTED_EDGE('',*,*,#209,.T.);
#71=ORIENTED_EDGE('',*,*,#206,.T.);
#72=ORIENTED_EDGE('',*,*,#210,.F.);
#73=ORIENTED_EDGE('',*,*,#167,.F.);
#74=ORIENTED_EDGE('',*,*,#211,.T.);
#75=ORIENTED_EDGE('',*,*,#187,.T.);
#76=ORIENTED_EDGE('',*,*,#212,.T.);
#77=ORIENTED_EDGE('',*,*,#191,.F.);
#78=ORIENTED_EDGE('',*,*,#213,.F.);
#79=ORIENTED_EDGE('',*,*,#214,.F.);
#80=ORIENTED_EDGE('',*,*,#215,.F.);
#81=ORIENTED_EDGE('',*,*,#213,.T.);
#82=ORIENTED_EDGE('',*,*,#195,.F.);
#83=ORIENTED_EDGE('',*,*,#216,.T.);
#84=ORIENTED_EDGE('',*,*,#217,.T.);
#85=ORIENTED_EDGE('',*,*,#218,.F.);
#86=ORIENTED_EDGE('',*,*,#216,.F.);
#87=ORIENTED_EDGE('',*,*,#198,.F.);
#88=ORIENTED_EDGE('',*,*,#219,.F.);
#89=ORIENTED_EDGE('',*,*,#220,.F.);
#90=ORIENTED_EDGE('',*,*,#217,.F.);
#91=ORIENTED_EDGE('',*,*,#201,.F.);
#92=ORIENTED_EDGE('',*,*,#204,.F.);
#93=ORIENTED_EDGE('',*,*,#221,.T.);
#94=ORIENTED_EDGE('',*,*,#222,.F.);
#95=ORIENTED_EDGE('',*,*,#219,.T.);
#96=ORIENTED_EDGE('',*,*,#223,.T.);
#97=ORIENTED_EDGE('',*,*,#209,.F.);
#98=ORIENTED_EDGE('',*,*,#212,.F.);
#99=ORIENTED_EDGE('',*,*,#224,.F.);
#100=ORIENTED_EDGE('',*,*,#221,.F.);
#101=ORIENTED_EDGE('',*,*,#207,.F.);
#102=ORIENTED_EDGE('',*,*,#223,.F.);
#103=ORIENTED_EDGE('',*,*,#225,.F.);
#104=ORIENTED_EDGE('',*,*,#224,.T.);
#105=ORIENTED_EDGE('',*,*,#214,.T.);
#106=ORIENTED_EDGE('',*,*,#215,.T.);
#107=ORIENTED_EDGE('',*,*,#218,.T.);
#108=ORIENTED_EDGE('',*,*,#220,.T.);
#109=ORIENTED_EDGE('',*,*,#222,.T.);
#110=ORIENTED_EDGE('',*,*,#225,.T.);
#111=ORIENTED_EDGE('',*,*,#166,.T.);
#112=ORIENTED_EDGE('',*,*,#170,.T.);
#113=ORIENTED_EDGE('',*,*,#173,.T.);
#114=ORIENTED_EDGE('',*,*,#176,.T.);
#115=ORIENTED_EDGE('',*,*,#179,.T.);
#116=ORIENTED_EDGE('',*,*,#182,.F.);
#117=ORIENTED_EDGE('',*,*,#185,.F.);
#118=ORIENTED_EDGE('',*,*,#188,.F.);
#119=ORIENTED_EDGE('',*,*,#211,.F.);
#120=ORIENTED_EDGE('',*,*,#226,.F.);
#121=ORIENTED_EDGE('',*,*,#227,.T.);
#122=ORIENTED_EDGE('',*,*,#228,.T.);
#123=ORIENTED_EDGE('',*,*,#189,.T.);
#124=ORIENTED_EDGE('',*,*,#229,.T.);
#125=ORIENTED_EDGE('',*,*,#230,.F.);
#126=ORIENTED_EDGE('',*,*,#193,.T.);
#127=ORIENTED_EDGE('',*,*,#228,.F.);
#128=ORIENTED_EDGE('',*,*,#231,.F.);
#129=ORIENTED_EDGE('',*,*,#196,.T.);
#130=ORIENTED_EDGE('',*,*,#230,.T.);
#131=ORIENTED_EDGE('',*,*,#232,.T.);
#132=ORIENTED_EDGE('',*,*,#233,.T.);
#133=ORIENTED_EDGE('',*,*,#199,.T.);
#134=ORIENTED_EDGE('',*,*,#231,.T.);
#135=ORIENTED_EDGE('',*,*,#234,.T.);
#136=ORIENTED_EDGE('',*,*,#202,.T.);
#137=ORIENTED_EDGE('',*,*,#233,.F.);
#138=ORIENTED_EDGE('',*,*,#235,.T.);
#139=ORIENTED_EDGE('',*,*,#236,.F.);
#140=ORIENTED_EDGE('',*,*,#237,.F.);
#141=ORIENTED_EDGE('',*,*,#238,.T.);
#142=ORIENTED_EDGE('',*,*,#226,.T.);
#143=ORIENTED_EDGE('',*,*,#208,.T.);
#144=ORIENTED_EDGE('',*,*,#236,.T.);
#145=ORIENTED_EDGE('',*,*,#239,.T.);
#146=ORIENTED_EDGE('',*,*,#237,.T.);
#147=ORIENTED_EDGE('',*,*,#205,.T.);
#148=ORIENTED_EDGE('',*,*,#238,.F.);
#149=ORIENTED_EDGE('',*,*,#239,.F.);
#150=ORIENTED_EDGE('',*,*,#235,.F.);
#151=ORIENTED_EDGE('',*,*,#234,.F.);
#152=ORIENTED_EDGE('',*,*,#232,.F.);
#153=ORIENTED_EDGE('',*,*,#229,.F.);
#154=ORIENTED_EDGE('',*,*,#227,.F.);
#155=ORIENTED_EDGE('',*,*,#164,.F.);
#156=ORIENTED_EDGE('',*,*,#210,.T.);
#157=ORIENTED_EDGE('',*,*,#186,.T.);
#158=ORIENTED_EDGE('',*,*,#183,.T.);
#159=ORIENTED_EDGE('',*,*,#180,.T.);
#160=ORIENTED_EDGE('',*,*,#177,.F.);
#161=ORIENTED_EDGE('',*,*,#174,.F.);
#162=ORIENTED_EDGE('',*,*,#171,.F.);
#163=ORIENTED_EDGE('',*,*,#168,.F.);
#164=EDGE_CURVE('',#240,#241,#286,.T.);
#165=EDGE_CURVE('',#242,#241,#287,.T.);
#166=EDGE_CURVE('',#243,#242,#288,.T.);
#167=EDGE_CURVE('',#243,#240,#289,.T.);
#168=EDGE_CURVE('',#241,#244,#290,.T.);
#169=EDGE_CURVE('',#245,#244,#291,.T.);
#170=EDGE_CURVE('',#242,#245,#292,.T.);
#171=EDGE_CURVE('',#244,#246,#293,.T.);
#172=EDGE_CURVE('',#247,#246,#294,.T.);
#173=EDGE_CURVE('',#245,#247,#295,.T.);
#174=EDGE_CURVE('',#246,#248,#296,.T.);
#175=EDGE_CURVE('',#249,#248,#297,.T.);
#176=EDGE_CURVE('',#247,#249,#298,.T.);
#177=EDGE_CURVE('',#248,#250,#299,.T.);
#178=EDGE_CURVE('',#251,#250,#300,.T.);
#179=EDGE_CURVE('',#249,#251,#301,.T.);
#180=EDGE_CURVE('',#252,#250,#302,.T.);
#181=EDGE_CURVE('',#253,#252,#303,.T.);
#182=EDGE_CURVE('',#253,#251,#304,.T.);
#183=EDGE_CURVE('',#254,#252,#305,.T.);
#184=EDGE_CURVE('',#255,#254,#306,.T.);
#185=EDGE_CURVE('',#255,#253,#307,.T.);
#186=EDGE_CURVE('',#256,#254,#308,.T.);
#187=EDGE_CURVE('',#257,#256,#309,.T.);
#188=EDGE_CURVE('',#257,#255,#310,.T.);
#189=EDGE_CURVE('',#258,#259,#311,.F.);
#190=EDGE_CURVE('',#260,#258,#312,.T.);
#191=EDGE_CURVE('',#260,#261,#313,.F.);
#192=EDGE_CURVE('',#261,#259,#314,.T.);
#193=EDGE_CURVE('',#262,#258,#315,.T.);
#194=EDGE_CURVE('',#263,#262,#316,.T.);
#195=EDGE_CURVE('',#263,#260,#317,.T.);
#196=EDGE_CURVE('',#264,#262,#318,.T.);
#197=EDGE_CURVE('',#265,#264,#319,.T.);
#198=EDGE_CURVE('',#265,#263,#320,.T.);
#199=EDGE_CURVE('',#266,#264,#321,.T.);
#200=EDGE_CURVE('',#267,#266,#322,.T.);
#201=EDGE_CURVE('',#267,#265,#323,.T.);
#202=EDGE_CURVE('',#268,#266,#324,.T.);
#203=EDGE_CURVE('',#269,#268,#325,.T.);
#204=EDGE_CURVE('',#269,#267,#326,.T.);
#205=EDGE_CURVE('',#270,#268,#327,.F.);
#206=EDGE_CURVE('',#271,#270,#328,.T.);
#207=EDGE_CURVE('',#271,#269,#329,.F.);
#208=EDGE_CURVE('',#259,#270,#330,.T.);
#209=EDGE_CURVE('',#261,#271,#331,.T.);
#210=EDGE_CURVE('',#240,#256,#332,.T.);
#211=EDGE_CURVE('',#243,#257,#333,.T.);
#212=EDGE_CURVE('',#272,#261,#334,.T.);
#213=EDGE_CURVE('',#273,#260,#335,.F.);
#214=EDGE_CURVE('',#272,#273,#336,.T.);
#215=EDGE_CURVE('',#273,#274,#337,.T.);
#216=EDGE_CURVE('',#263,#274,#338,.T.);
#217=EDGE_CURVE('',#265,#275,#339,.T.);
#218=EDGE_CURVE('',#274,#275,#340,.T.);
#219=EDGE_CURVE('',#276,#267,#341,.F.);
#220=EDGE_CURVE('',#275,#276,#342,.T.);
#221=EDGE_CURVE('',#269,#277,#343,.F.);
#222=EDGE_CURVE('',#276,#277,#344,.T.);
#223=EDGE_CURVE('',#278,#271,#345,.T.);
#224=EDGE_CURVE('',#278,#272,#346,.T.);
#225=EDGE_CURVE('',#277,#278,#347,.T.);
#226=EDGE_CURVE('',#279,#259,#348,.T.);
#227=EDGE_CURVE('',#279,#280,#349,.T.);
#228=EDGE_CURVE('',#280,#258,#350,.F.);
#229=EDGE_CURVE('',#280,#281,#351,.T.);
#230=EDGE_CURVE('',#262,#281,#352,.T.);
#231=EDGE_CURVE('',#264,#282,#353,.T.);
#232=EDGE_CURVE('',#281,#282,#354,.T.);
#233=EDGE_CURVE('',#283,#266,#355,.F.);
#234=EDGE_CURVE('',#282,#283,#356,.T.);
#235=EDGE_CURVE('',#283,#284,#357,.T.);
#236=EDGE_CURVE('',#268,#284,#358,.F.);
#237=EDGE_CURVE('',#285,#270,#359,.T.);
#238=EDGE_CURVE('',#285,#279,#360,.T.);
#239=EDGE_CURVE('',#284,#285,#361,.T.);
#240=VERTEX_POINT('',#760);
#241=VERTEX_POINT('',#761);
#242=VERTEX_POINT('',#763);
#243=VERTEX_POINT('',#765);
#244=VERTEX_POINT('',#769);
#245=VERTEX_POINT('',#771);
#246=VERTEX_POINT('',#775);
#247=VERTEX_POINT('',#777);
#248=VERTEX_POINT('',#781);
#249=VERTEX_POINT('',#783);
#250=VERTEX_POINT('',#787);
#251=VERTEX_POINT('',#789);
#252=VERTEX_POINT('',#793);
#253=VERTEX_POINT('',#795);
#254=VERTEX_POINT('',#799);
#255=VERTEX_POINT('',#801);
#256=VERTEX_POINT('',#805);
#257=VERTEX_POINT('',#807);
#258=VERTEX_POINT('',#811);
#259=VERTEX_POINT('',#812);
#260=VERTEX_POINT('',#814);
#261=VERTEX_POINT('',#816);
#262=VERTEX_POINT('',#820);
#263=VERTEX_POINT('',#822);
#264=VERTEX_POINT('',#826);
#265=VERTEX_POINT('',#828);
#266=VERTEX_POINT('',#832);
#267=VERTEX_POINT('',#834);
#268=VERTEX_POINT('',#838);
#269=VERTEX_POINT('',#840);
#270=VERTEX_POINT('',#844);
#271=VERTEX_POINT('',#846);
#272=VERTEX_POINT('',#856);
#273=VERTEX_POINT('',#858);
#274=VERTEX_POINT('',#862);
#275=VERTEX_POINT('',#866);
#276=VERTEX_POINT('',#870);
#277=VERTEX_POINT('',#874);
#278=VERTEX_POINT('',#878);
#279=VERTEX_POINT('',#885);
#280=VERTEX_POINT('',#887);
#281=VERTEX_POINT('',#891);
#282=VERTEX_POINT('',#895);
#283=VERTEX_POINT('',#899);
#284=VERTEX_POINT('',#903);
#285=VERTEX_POINT('',#907);
#286=LINE('',#759,#362);
#287=LINE('',#762,#363);
#288=LINE('',#764,#364);
#289=LINE('',#766,#365);
#290=LINE('',#768,#366);
#291=LINE('',#770,#367);
#292=LINE('',#772,#368);
#293=LINE('',#774,#369);
#294=LINE('',#776,#370);
#295=LINE('',#778,#371);
#296=LINE('',#780,#372);
#297=LINE('',#782,#373);
#298=LINE('',#784,#374);
#299=LINE('',#786,#375);
#300=LINE('',#788,#376);
#301=LINE('',#790,#377);
#302=LINE('',#792,#378);
#303=LINE('',#794,#379);
#304=LINE('',#796,#380);
#305=LINE('',#798,#381);
#306=LINE('',#800,#382);
#307=LINE('',#802,#383);
#308=LINE('',#804,#384);
#309=LINE('',#806,#385);
#310=LINE('',#808,#386);
#311=LINE('',#810,#387);
#312=LINE('',#813,#388);
#313=LINE('',#815,#389);
#314=LINE('',#817,#390);
#315=LINE('',#819,#391);
#316=LINE('',#821,#392);
#317=LINE('',#823,#393);
#318=LINE('',#825,#394);
#319=LINE('',#827,#395);
#320=LINE('',#829,#396);
#321=LINE('',#831,#397);
#322=LINE('',#833,#398);
#323=LINE('',#835,#399);
#324=LINE('',#837,#400);
#325=LINE('',#839,#401);
#326=LINE('',#841,#402);
#327=LINE('',#843,#403);
#328=LINE('',#845,#404);
#329=LINE('',#847,#405);
#330=LINE('',#849,#406);
#331=LINE('',#850,#407);
#332=LINE('',#852,#408);
#333=LINE('',#853,#409);
#334=LINE('',#855,#410);
#335=LINE('',#857,#411);
#336=LINE('',#859,#412);
#337=LINE('',#861,#413);
#338=LINE('',#863,#414);
#339=LINE('',#865,#415);
#340=LINE('',#867,#416);
#341=LINE('',#869,#417);
#342=LINE('',#871,#418);
#343=LINE('',#873,#419);
#344=LINE('',#875,#420);
#345=LINE('',#877,#421);
#346=LINE('',#879,#422);
#347=LINE('',#881,#423);
#348=LINE('',#884,#424);
#349=LINE('',#886,#425);
#350=LINE('',#888,#426);
#351=LINE('',#890,#427);
#352=LINE('',#892,#428);
#353=LINE('',#894,#429);
#354=LINE('',#896,#430);
#355=LINE('',#898,#431);
#356=LINE('',#900,#432);
#357=LINE('',#902,#433);
#358=LINE('',#904,#434);
#359=LINE('',#906,#435);
#360=LINE('',#908,#436);
#361=LINE('',#910,#437);
#362=VECTOR('',#619,1000.);
#363=VECTOR('',#620,1000.);
#364=VECTOR('',#621,1000.);
#365=VECTOR('',#622,1000.);
#366=VECTOR('',#625,1000.);
#367=VECTOR('',#626,1000.);
#368=VECTOR('',#627,1000.);
#369=VECTOR('',#630,1000.);
#370=VECTOR('',#631,1000.);
#371=VECTOR('',#632,1000.);
#372=VECTOR('',#635,1000.);
#373=VECTOR('',#636,1000.);
#374=VECTOR('',#637,1000.);
#375=VECTOR('',#640,1000.);
#376=VECTOR('',#641,1000.);
#377=VECTOR('',#642,1000.);
#378=VECTOR('',#645,1000.);
#379=VECTOR('',#646,1000.);
#380=VECTOR('',#647,1000.);
#381=VECTOR('',#650,1000.);
#382=VECTOR('',#651,1000.);
#383=VECTOR('',#652,1000.);
#384=VECTOR('',#655,1000.);
#385=VECTOR('',#656,1000.);
#386=VECTOR('',#657,1000.);
#387=VECTOR('',#660,1000.);
#388=VECTOR('',#661,1000.);
#389=VECTOR('',#662,1000.);
#390=VECTOR('',#663,1000.);
#391=VECTOR('',#666,1000.);
#392=VECTOR('',#667,1000.);
#393=VECTOR('',#668,1000.);
#394=VECTOR('',#671,1000.);
#395=VECTOR('',#672,1000.);
#396=VECTOR('',#673,1000.);
#397=VECTOR('',#676,1000.);
#398=VECTOR('',#677,1000.);
#399=VECTOR('',#678,1000.);
#400=VECTOR('',#681,1000.);
#401=VECTOR('',#682,1000.);
#402=VECTOR('',#683,1000.);
#403=VECTOR('',#686,1000.);
#404=VECTOR('',#687,1000.);
#405=VECTOR('',#688,1000.);
#406=VECTOR('',#691,1000.);
#407=VECTOR('',#692,1000.);
#408=VECTOR('',#695,1000.);
#409=VECTOR('',#696,1000.);
#410=VECTOR('',#699,1000.);
#411=VECTOR('',#700,1000.);
#412=VECTOR('',#701,1000.);
#413=VECTOR('',#704,1000.);
#414=VECTOR('',#705,1000.);
#415=VECTOR('',#708,1000.);
#416=VECTOR('',#709,1000.);
#417=VECTOR('',#712,1000.);
#418=VECTOR('',#713,1000.);
#419=VECTOR('',#716,1000.);
#420=VECTOR('',#717,1000.);
#421=VECTOR('',#720,1000.);
#422=VECTOR('',#721,1000.);
#423=VECTOR('',#724,1000.);
#424=VECTOR('',#729,1000.);
#425=VECTOR('',#730,1000.);
#426=VECTOR('',#731,1000.);
#427=VECTOR('',#734,1000.);
#428=VECTOR('',#735,1000.);
#429=VECTOR('',#738,1000.);
#430=VECTOR('',#739,1000.);
#431=VECTOR('',#742,1000.);
#432=VECTOR('',#743,1000.);
#433=VECTOR('',#746,1000.);
#434=VECTOR('',#747,1000.);
#435=VECTOR('',#750,1000.);
#436=VECTOR('',#751,1000.);
#437=VECTOR('',#754,1000.);
#438=EDGE_LOOP('',(#12,#13,#14,#15));
#439=EDGE_LOOP('',(#16,#17,#18,#19));
#440=EDGE_LOOP('',(#20,#21,#22,#23));
#441=EDGE_LOOP('',(#24,#25,#26,#27));
#442=EDGE_LOOP('',(#28,#29,#30,#31));
#443=EDGE_LOOP('',(#32,#33,#34,#35));
#444=EDGE_LOOP('',(#36,#37,#38,#39));
#445=EDGE_LOOP('',(#40,#41,#42,#43));
#446=EDGE_LOOP('',(#44,#45,#46,#47));
#447=EDGE_LOOP('',(#48,#49,#50,#51));
#448=EDGE_LOOP('',(#52,#53,#54,#55));
#449=EDGE_LOOP('',(#56,#57,#58,#59));
#450=EDGE_LOOP('',(#60,#61,#62,#63));
#451=EDGE_LOOP('',(#64,#65,#66,#67));
#452=EDGE_LOOP('',(#68,#69,#70,#71));
#453=EDGE_LOOP('',(#72,#73,#74,#75));
#454=EDGE_LOOP('',(#76,#77,#78,#79));
#455=EDGE_LOOP('',(#80,#81,#82,#83));
#456=EDGE_LOOP('',(#84,#85,#86,#87));
#457=EDGE_LOOP('',(#88,#89,#90,#91));
#458=EDGE_LOOP('',(#92,#93,#94,#95));
#459=EDGE_LOOP('',(#96,#97,#98,#99));
#460=EDGE_LOOP('',(#100,#101,#102,#103));
#461=EDGE_LOOP('',(#104,#105,#106,#107,#108,#109,#110));
#462=EDGE_LOOP('',(#111,#112,#113,#114,#115,#116,#117,#118,#119));
#463=EDGE_LOOP('',(#120,#121,#122,#123));
#464=EDGE_LOOP('',(#124,#125,#126,#127));
#465=EDGE_LOOP('',(#128,#129,#130,#131));
#466=EDGE_LOOP('',(#132,#133,#134,#135));
#467=EDGE_LOOP('',(#136,#137,#138,#139));
#468=EDGE_LOOP('',(#140,#141,#142,#143));
#469=EDGE_LOOP('',(#144,#145,#146,#147));
#470=EDGE_LOOP('',(#148,#149,#150,#151,#152,#153,#154));
#471=EDGE_LOOP('',(#155,#156,#157,#158,#159,#160,#161,#162,#163));
#472=FACE_BOUND('',#438,.T.);
#473=FACE_BOUND('',#439,.T.);
#474=FACE_BOUND('',#440,.T.);
#475=FACE_BOUND('',#441,.T.);
#476=FACE_BOUND('',#442,.T.);
#477=FACE_BOUND('',#443,.T.);
#478=FACE_BOUND('',#444,.T.);
#479=FACE_BOUND('',#445,.T.);
#480=FACE_BOUND('',#446,.T.);
#481=FACE_BOUND('',#447,.T.);
#482=FACE_BOUND('',#448,.T.);
#483=FACE_BOUND('',#449,.T.);
#484=FACE_BOUND('',#450,.T.);
#485=FACE_BOUND('',#451,.T.);
#486=FACE_BOUND('',#452,.T.);
#487=FACE_BOUND('',#453,.T.);
#488=FACE_BOUND('',#454,.T.);
#489=FACE_BOUND('',#455,.T.);
#490=FACE_BOUND('',#456,.T.);
#491=FACE_BOUND('',#457,.T.);
#492=FACE_BOUND('',#458,.T.);
#493=FACE_BOUND('',#459,.T.);
#494=FACE_BOUND('',#460,.T.);
#495=FACE_BOUND('',#461,.T.);
#496=FACE_BOUND('',#462,.T.);
#497=FACE_BOUND('',#463,.T.);
#498=FACE_BOUND('',#464,.T.);
#499=FACE_BOUND('',#465,.T.);
#500=FACE_BOUND('',#466,.T.);
#501=FACE_BOUND('',#467,.T.);
#502=FACE_BOUND('',#468,.T.);
#503=FACE_BOUND('',#469,.T.);
#504=FACE_BOUND('',#470,.T.);
#505=FACE_BOUND('',#471,.T.);
#506=PLANE('',#583);
#507=PLANE('',#584);
#508=PLANE('',#585);
#509=PLANE('',#586);
#510=PLANE('',#587);
#511=PLANE('',#588);
#512=PLANE('',#589);
#513=PLANE('',#590);
#514=PLANE('',#591);
#515=PLANE('',#592);
#516=PLANE('',#593);
#517=PLANE('',#594);
#518=PLANE('',#595);
#519=PLANE('',#596);
#520=PLANE('',#597);
#521=PLANE('',#598);
#522=PLANE('',#599);
#523=PLANE('',#600);
#524=PLANE('',#601);
#525=PLANE('',#602);
#526=PLANE('',#603);
#527=PLANE('',#604);
#528=PLANE('',#605);
#529=PLANE('',#606);
#530=PLANE('',#607);
#531=PLANE('',#608);
#532=PLANE('',#609);
#533=PLANE('',#610);
#534=PLANE('',#611);
#535=PLANE('',#612);
#536=PLANE('',#613);
#537=PLANE('',#614);
#538=ADVANCED_FACE('',(#472),#506,.F.);
#539=ADVANCED_FACE('',(#473),#507,.F.);
#540=ADVANCED_FACE('',(#474),#508,.F.);
#541=ADVANCED_FACE('',(#475),#509,.F.);
#542=ADVANCED_FACE('',(#476),#510,.F.);
#543=ADVANCED_FACE('',(#477),#511,.T.);
#544=ADVANCED_FACE('',(#478),#512,.T.);
#545=ADVANCED_FACE('',(#479),#513,.T.);
#546=ADVANCED_FACE('',(#480),#514,.T.);
#547=ADVANCED_FACE('',(#481),#515,.T.);
#548=ADVANCED_FACE('',(#482),#516,.T.);
#549=ADVANCED_FACE('',(#483),#517,.T.);
#550=ADVANCED_FACE('',(#484),#518,.T.);
#551=ADVANCED_FACE('',(#485),#519,.T.);
#552=ADVANCED_FACE('',(#486),#520,.T.);
#553=ADVANCED_FACE('',(#487),#521,.T.);
#554=ADVANCED_FACE('',(#488),#522,.F.);
#555=ADVANCED_FACE('',(#489),#523,.T.);
#556=ADVANCED_FACE('',(#490),#524,.T.);
#557=ADVANCED_FACE('',(#491),#525,.T.);
#558=ADVANCED_FACE('',(#492),#526,.T.);
#559=ADVANCED_FACE('',(#493),#527,.T.);
#560=ADVANCED_FACE('',(#494),#528,.F.);
#561=ADVANCED_FACE('',(#495,#496),#529,.F.);
#562=ADVANCED_FACE('',(#497),#530,.T.);
#563=ADVANCED_FACE('',(#498),#531,.F.);
#564=ADVANCED_FACE('',(#499),#532,.F.);
#565=ADVANCED_FACE('',(#500),#533,.F.);
#566=ADVANCED_FACE('',(#501),#534,.F.);
#567=ADVANCED_FACE('',(#502),#535,.F.);
#568=ADVANCED_FACE('',(#503),#536,.T.);
#569=ADVANCED_FACE('',(#504,#505),#537,.T.);
#570=CLOSED_SHELL('',(#538,#539,#540,#541,#542,#543,#544,#545,#546,#547,
#548,#549,#550,#551,#552,#553,#554,#555,#556,#557,#558,#559,#560,#561,#562,
#563,#564,#565,#566,#567,#568,#569));
#571=STYLED_ITEM('',(#572),#579);
#572=PRESENTATION_STYLE_ASSIGNMENT((#573));
#573=SURFACE_STYLE_USAGE(.BOTH.,#574);
#574=SURFACE_SIDE_STYLE('',(#575));
#575=SURFACE_STYLE_FILL_AREA(#576);
#576=FILL_AREA_STYLE('',(#577));
#577=FILL_AREA_STYLE_COLOUR('',#578);
#578=COLOUR_RGB('',0.188235294117647,0.188235294117647,0.188235294117647);
#579=MANIFOLD_SOLID_BREP('[o]_LED_filter',#570);
#580=SHAPE_DEFINITION_REPRESENTATION(#918,#581);
#581=SHAPE_REPRESENTATION('[o]_LED_filter',(#582),#913);
#582=AXIS2_PLACEMENT_3D('',#757,#615,#616);
#583=AXIS2_PLACEMENT_3D('',#758,#617,#618);
#584=AXIS2_PLACEMENT_3D('',#767,#623,#624);
#585=AXIS2_PLACEMENT_3D('',#773,#628,#629);
#586=AXIS2_PLACEMENT_3D('',#779,#633,#634);
#587=AXIS2_PLACEMENT_3D('',#785,#638,#639);
#588=AXIS2_PLACEMENT_3D('',#791,#643,#644);
#589=AXIS2_PLACEMENT_3D('',#797,#648,#649);
#590=AXIS2_PLACEMENT_3D('',#803,#653,#654);
#591=AXIS2_PLACEMENT_3D('',#809,#658,#659);
#592=AXIS2_PLACEMENT_3D('',#818,#664,#665);
#593=AXIS2_PLACEMENT_3D('',#824,#669,#670);
#594=AXIS2_PLACEMENT_3D('',#830,#674,#675);
#595=AXIS2_PLACEMENT_3D('',#836,#679,#680);
#596=AXIS2_PLACEMENT_3D('',#842,#684,#685);
#597=AXIS2_PLACEMENT_3D('',#848,#689,#690);
#598=AXIS2_PLACEMENT_3D('',#851,#693,#694);
#599=AXIS2_PLACEMENT_3D('',#854,#697,#698);
#600=AXIS2_PLACEMENT_3D('',#860,#702,#703);
#601=AXIS2_PLACEMENT_3D('',#864,#706,#707);
#602=AXIS2_PLACEMENT_3D('',#868,#710,#711);
#603=AXIS2_PLACEMENT_3D('',#872,#714,#715);
#604=AXIS2_PLACEMENT_3D('',#876,#718,#719);
#605=AXIS2_PLACEMENT_3D('',#880,#722,#723);
#606=AXIS2_PLACEMENT_3D('',#882,#725,#726);
#607=AXIS2_PLACEMENT_3D('',#883,#727,#728);
#608=AXIS2_PLACEMENT_3D('',#889,#732,#733);
#609=AXIS2_PLACEMENT_3D('',#893,#736,#737);
#610=AXIS2_PLACEMENT_3D('',#897,#740,#741);
#611=AXIS2_PLACEMENT_3D('',#901,#744,#745);
#612=AXIS2_PLACEMENT_3D('',#905,#748,#749);
#613=AXIS2_PLACEMENT_3D('',#909,#752,#753);
#614=AXIS2_PLACEMENT_3D('',#911,#755,#756);
#615=DIRECTION('',(0.,0.,1.));
#616=DIRECTION('',(1.,0.,0.));
#617=DIRECTION('',(-0.500007819939908,0.866020888892953,-4.35437780153682E-15));
#618=DIRECTION('',(-0.866020888892953,-0.500007819939908,-2.85754255102398E-13));
#619=DIRECTION('',(-0.866020888892953,-0.500007819939908,0.));
#620=DIRECTION('',(-7.04731412121677E-15,9.59175052252083E-16,1.));
#621=DIRECTION('',(-0.866020888892953,-0.500007819939908,0.));
#622=DIRECTION('',(-7.04731412121717E-15,9.59175052251881E-16,1.));
#623=DIRECTION('',(-0.866029918605317,0.499992180019316,-6.58276490017929E-15));
#624=DIRECTION('',(-0.499992180019316,-0.866029918605317,-4.94935727839544E-13));
#625=DIRECTION('',(-0.499992180019316,-0.866029918605317,0.));
#626=DIRECTION('',(-7.04731412121717E-15,9.59175052251982E-16,1.));
#627=DIRECTION('',(-0.499992180019316,-0.866029918605317,0.));
#628=DIRECTION('',(-0.999999999959232,-9.02971235845704E-6,-7.04730545985489E-15));
#629=DIRECTION('',(9.02971235845704E-6,-0.999999999959232,-5.71499571996769E-13));
#630=DIRECTION('',(9.02971235845704E-6,-0.999999999959232,0.));
#631=DIRECTION('',(-7.04731412121717E-15,9.59175052251881E-16,1.));
#632=DIRECTION('',(9.02971235845704E-6,-0.999999999959232,0.));
#633=DIRECTION('',(-0.499992180019325,-0.866029918605312,-2.69292765831831E-15));
#634=DIRECTION('',(0.866029918605312,-0.499992180019325,-2.85745316894371E-13));
#635=DIRECTION('',(0.866029918605312,-0.499992180019325,0.));
#636=DIRECTION('',(-7.04731412121717E-15,9.59175052251982E-16,1.));
#637=DIRECTION('',(0.866029918605312,-0.499992180019325,0.));
#638=DIRECTION('',(-1.20004111342768E-24,-1.,9.59175052251982E-16));
#639=DIRECTION('',(-6.13923110890351E-26,9.59175052251982E-16,1.));
#640=DIRECTION('',(1.,-1.20004111342768E-24,-2.41493018262266E-37));
#641=DIRECTION('',(-7.04731412121717E-15,9.59175052251982E-16,1.));
#642=DIRECTION('',(1.,-1.20004111342768E-24,-2.41493018262266E-37));
#643=DIRECTION('',(-0.499992180019325,0.866029918605312,-4.35427624317827E-15));
#644=DIRECTION('',(-0.866029918605312,-0.499992180019325,-2.85745316894478E-13));
#645=DIRECTION('',(-0.866029918605312,-0.499992180019325,0.));
#646=DIRECTION('',(-7.04731412121717E-15,9.59175052252184E-16,1.));
#647=DIRECTION('',(-0.866029918605312,-0.499992180019325,0.));
#648=DIRECTION('',(-0.999999999959232,9.02971235845704E-6,-7.04732278200471E-15));
#649=DIRECTION('',(-9.02971235845704E-6,-0.999999999959232,-5.71499571996769E-13));
#650=DIRECTION('',(-9.02971235845704E-6,-0.999999999959232,0.));
#651=DIRECTION('',(-7.04731412121717E-15,9.59175052251881E-16,1.));
#652=DIRECTION('',(-9.02971235845704E-6,-0.999999999959232,0.));
#653=DIRECTION('',(-0.866029918605313,-0.499992180019323,-5.62360484938813E-15));
#654=DIRECTION('',(0.499992180019323,-0.866029918605313,-4.9493572783948E-13));
#655=DIRECTION('',(0.499992180019323,-0.866029918605313,1.00974195868289E-28));
#656=DIRECTION('',(-7.04731412121677E-15,9.59175052251881E-16,1.));
#657=DIRECTION('',(0.499992180019323,-0.866029918605313,1.00974195868289E-28));
#658=DIRECTION('',(-0.707113166128562,-0.707100396186879,-4.30501554149642E-15));
#659=DIRECTION('',(0.707100396186879,-0.707113166128562,-4.04114871812184E-13));
#660=DIRECTION('',(-0.707100396186879,0.707113166128562,-2.01948391736579E-28));
#661=DIRECTION('',(-7.04731412121717E-15,9.59175052251982E-16,1.));
#662=DIRECTION('',(-0.707100396186879,0.707113166128562,-2.01948391736579E-28));
#663=DIRECTION('',(-7.04731412121717E-15,9.59175052251982E-16,1.));
#664=DIRECTION('',(-0.999999999959232,9.02971235875753E-6,-7.04732278200452E-15));
#665=DIRECTION('',(-9.02971235875753E-6,-0.999999999959232,-5.71499571996769E-13));
#666=DIRECTION('',(-9.02971235875753E-6,-0.999999999959232,-1.00974195868289E-28));
#667=DIRECTION('',(-7.04731412121717E-15,9.59175052251982E-16,1.));
#668=DIRECTION('',(-9.02971235875753E-6,-0.999999999959232,-1.00974195868289E-28));
#669=DIRECTION('',(-0.499992180019325,0.866029918605312,-4.35427624317827E-15));
#670=DIRECTION('',(-0.866029918605312,-0.499992180019325,-2.85745316894478E-13));
#671=DIRECTION('',(-0.866029918605312,-0.499992180019325,2.01948391736579E-28));
#672=DIRECTION('',(-7.04731412121717E-15,9.59175052251982E-16,1.));
#673=DIRECTION('',(-0.866029918605312,-0.499992180019325,2.01948391736579E-28));
#674=DIRECTION('',(0.500007819939908,0.866020888892953,2.69304653882631E-15));
#675=DIRECTION('',(-0.866020888892953,0.500007819939908,2.85754255102291E-13));
#676=DIRECTION('',(-0.866020888892953,0.500007819939908,4.03896783473158E-28));
#677=DIRECTION('',(-7.04731412121717E-15,9.59175052251982E-16,1.));
#678=DIRECTION('',(-0.866020888892953,0.500007819939908,4.03896783473158E-28));
#679=DIRECTION('',(0.999999999959232,-9.02971235875753E-6,7.04732278200452E-15));
#680=DIRECTION('',(9.02971235875753E-6,0.999999999959232,5.71499571996769E-13));
#681=DIRECTION('',(9.02971235875753E-6,0.999999999959232,1.00974195868289E-28));
#682=DIRECTION('',(-7.04731412121717E-15,9.59175052251982E-16,1.));
#683=DIRECTION('',(9.02971235875753E-6,0.999999999959232,1.00974195868289E-28));
#684=DIRECTION('',(0.707100396186879,-0.707113166128562,5.66140391523567E-15));
#685=DIRECTION('',(0.707113166128562,0.707100396186879,4.04107573796066E-13));
#686=DIRECTION('',(-0.707113166128562,-0.707100396186879,0.));
#687=DIRECTION('',(-7.04731412121717E-15,9.59175052251982E-16,1.));
#688=DIRECTION('',(-0.707113166128562,-0.707100396186879,0.));
#689=DIRECTION('',(-1.20004111342768E-24,-1.,9.59175052251982E-16));
#690=DIRECTION('',(-6.13923110890351E-26,9.59175052251982E-16,1.));
#691=DIRECTION('',(1.,-1.20004111342768E-24,-2.41493018262266E-37));
#692=DIRECTION('',(1.,-1.20004111342768E-24,-2.41493018262266E-37));
#693=DIRECTION('',(-0.500007819939908,-0.866020888892953,-2.69304653882631E-15));
#694=DIRECTION('',(0.866020888892953,-0.500007819939908,-2.85754255102291E-13));
#695=DIRECTION('',(0.866020888892953,-0.500007819939908,0.));
#696=DIRECTION('',(0.866020888892953,-0.500007819939908,0.));
#697=DIRECTION('',(0.500004514835797,0.499995485123437,0.707106781186547));
#698=DIRECTION('',(-0.707100396186879,0.707113166128562,-2.01948391736579E-28));
#699=DIRECTION('',(-0.281087943554336,-0.678597659879694,0.678597659879695));
#700=DIRECTION('',(0.67860088263161,0.281078510155499,-0.678598344545847));
#701=DIRECTION('',(-0.707100396186879,0.707113166128562,-2.01948391736579E-28));
#702=DIRECTION('',(-0.70710678115772,6.38497084104142E-6,-0.707106781186548));
#703=DIRECTION('',(-9.02971235875753E-6,-0.999999999959232,-1.00974195868289E-28));
#704=DIRECTION('',(9.02971235875753E-6,0.999999999959232,1.00974195868289E-28));
#705=DIRECTION('',(0.654650257770816,-0.377970384328159,-0.654653670707977));
#706=DIRECTION('',(-0.35354786103191,0.61237562815625,-0.707106781186548));
#707=DIRECTION('',(-0.866029918605312,-0.499992180019325,2.01948391736579E-28));
#708=DIRECTION('',(-6.82582094329487E-6,-0.755928945987637,-0.654653670707978));
#709=DIRECTION('',(0.866029918605312,0.499992180019325,-2.01948391736579E-28));
#710=DIRECTION('',(0.353558920125811,0.61236924318541,-0.707106781186546));
#711=DIRECTION('',(-0.866020888892953,0.500007819939908,4.03896783473158E-28));
#712=DIRECTION('',(-0.654657083591763,-0.377958561659475,-0.654653670707978));
#713=DIRECTION('',(0.866020888892953,-0.500007819939908,0.));
#714=DIRECTION('',(0.70710678115772,-6.38497084104142E-6,-0.707106781186548));
#715=DIRECTION('',(9.02971235875753E-6,0.999999999959232,1.00974195868289E-28));
#716=DIRECTION('',(0.678595806404756,-0.28109076525122,0.678598344545847));
#717=DIRECTION('',(-9.02971235875753E-6,-0.999999999959232,-1.00974195868289E-28));
#718=DIRECTION('',(-8.48671014754898E-25,-0.707106781186548,-0.707106781186547));
#719=DIRECTION('',(1.,-1.20004111342768E-24,-2.41493018262266E-37));
#720=DIRECTION('',(0.281081331877664,-0.678599029202767,0.678599029202769));
#721=DIRECTION('',(-1.,1.20004111342768E-24,2.41493018262266E-37));
#722=DIRECTION('',(-0.499995485123436,0.500004514835796,0.707106781186548));
#723=DIRECTION('',(-0.707113166128562,-0.707100396186879,0.));
#724=DIRECTION('',(-0.707113166128562,-0.707100396186879,0.));
#725=DIRECTION('',(-1.11657906088251E-36,0.,1.));
#726=DIRECTION('',(1.,-1.20004111342768E-24,-2.41493018262266E-37));
#727=DIRECTION('',(0.500004514835797,0.499995485123437,0.707106781186547));
#728=DIRECTION('',(-0.707100396186879,0.707113166128562,-2.01948391736579E-28));
#729=DIRECTION('',(-0.281087943554336,-0.678597659879694,0.678597659879695));
#730=DIRECTION('',(-0.707100396186879,0.707113166128562,-2.01948391736579E-28));
#731=DIRECTION('',(0.67860088263161,0.281078510155499,-0.678598344545847));
#732=DIRECTION('',(-0.70710678115772,6.38497084104142E-6,-0.707106781186548));
#733=DIRECTION('',(-9.02971235875753E-6,-0.999999999959232,-1.00974195868289E-28));
#734=DIRECTION('',(9.02971235875753E-6,0.999999999959232,1.00974195868289E-28));
#735=DIRECTION('',(0.654650257770816,-0.377970384328159,-0.654653670707977));
#736=DIRECTION('',(-0.35354786103191,0.61237562815625,-0.707106781186548));
#737=DIRECTION('',(-0.866029918605312,-0.499992180019325,2.01948391736579E-28));
#738=DIRECTION('',(-6.82582094329487E-6,-0.755928945987637,-0.654653670707978));
#739=DIRECTION('',(0.866029918605312,0.499992180019325,-2.01948391736579E-28));
#740=DIRECTION('',(0.353558920125811,0.61236924318541,-0.707106781186546));
#741=DIRECTION('',(-0.866020888892953,0.500007819939908,4.03896783473158E-28));
#742=DIRECTION('',(-0.654657083591763,-0.377958561659475,-0.654653670707978));
#743=DIRECTION('',(0.866020888892953,-0.500007819939908,0.));
#744=DIRECTION('',(0.70710678115772,-6.38497084104142E-6,-0.707106781186548));
#745=DIRECTION('',(9.02971235875753E-6,0.999999999959232,1.00974195868289E-28));
#746=DIRECTION('',(-9.02971235875753E-6,-0.999999999959232,-1.00974195868289E-28));
#747=DIRECTION('',(0.678595806404756,-0.28109076525122,0.678598344545847));
#748=DIRECTION('',(-8.48671014754898E-25,-0.707106781186548,-0.707106781186547));
#749=DIRECTION('',(1.,-1.20004111342768E-24,-2.41493018262266E-37));
#750=DIRECTION('',(0.281081331877664,-0.678599029202767,0.678599029202769));
#751=DIRECTION('',(-1.,1.20004111342768E-24,2.41493018262266E-37));
#752=DIRECTION('',(-0.499995485123436,0.500004514835796,0.707106781186548));
#753=DIRECTION('',(-0.707113166128562,-0.707100396186879,0.));
#754=DIRECTION('',(-0.707113166128562,-0.707100396186879,0.));
#755=DIRECTION('',(-1.11657906088251E-36,0.,1.));
#756=DIRECTION('',(1.,-1.20004111342768E-24,-2.41493018262266E-37));
#757=CARTESIAN_POINT('',(0.,0.,0.));
#758=CARTESIAN_POINT('',(-3.3815198196225,29.6358881567992,6.93889390390723E-15));
#759=CARTESIAN_POINT('',(-3.38151981962251,29.6358881567992,0.8));
#760=CARTESIAN_POINT('',(2.91091084252438E-5,31.5882670538444,0.8));
#761=CARTESIAN_POINT('',(-2.97313059535067,29.8716767022419,0.8));
#762=CARTESIAN_POINT('',(-2.97313059535066,29.8716767022419,0.));
#763=CARTESIAN_POINT('',(-2.97313059535066,29.8716767022419,-6.93889390390723E-15));
#764=CARTESIAN_POINT('',(-3.3815198196225,29.6358881567992,6.93889390390723E-15));
#765=CARTESIAN_POINT('',(2.91091084308816E-5,31.5882670538444,6.93889390390723E-15));
#766=CARTESIAN_POINT('',(2.91091084305575E-5,31.5882670538444,2.77555756156289E-14));
#767=CARTESIAN_POINT('',(-3.28652315344806,29.3288535493477,0.));
#768=CARTESIAN_POINT('',(-4.86804465645305,26.5895208292498,0.8));
#769=CARTESIAN_POINT('',(-3.59991571154546,28.7860303964533,0.8));
#770=CARTESIAN_POINT('',(-3.59991571154545,28.7860303964533,6.93889390390723E-15));
#771=CARTESIAN_POINT('',(-3.59991571154545,28.7860303964533,6.93889390390723E-15));
#772=CARTESIAN_POINT('',(-4.86804465645303,26.5895208292498,6.93889390390723E-15));
#773=CARTESIAN_POINT('',(-3.59987049916921,23.7789632336456,6.93889390390723E-15));
#774=CARTESIAN_POINT('',(-3.59987049916921,23.7789632336456,0.800000000000009));
#775=CARTESIAN_POINT('',(-3.59988471108457,25.3528688891314,0.8));
#776=CARTESIAN_POINT('',(-3.59988471108456,25.3528688891314,0.));
#777=CARTESIAN_POINT('',(-3.59988471108456,25.3528688891314,6.93889390390723E-15));
#778=CARTESIAN_POINT('',(-3.59987049916921,23.7789632336456,6.93889390390723E-15));
#779=CARTESIAN_POINT('',(-0.218421235956153,23.4006207528222,0.));
#780=CARTESIAN_POINT('',(-0.218421235956158,23.4006207528222,0.8));
#781=CARTESIAN_POINT('',(-0.626664549290527,23.6363152246034,0.8));
#782=CARTESIAN_POINT('',(-0.626664549290522,23.6363152246034,0.));
#783=CARTESIAN_POINT('',(-0.626664549290522,23.6363152246034,6.93889390390723E-15));
#784=CARTESIAN_POINT('',(-0.218421235956153,23.4006207528222,0.));
#785=CARTESIAN_POINT('',(2.91091084310996E-5,23.6363152246034,0.));
#786=CARTESIAN_POINT('',(2.91091084253533E-5,23.6363152246034,0.8));
#787=CARTESIAN_POINT('',(0.626722767507379,23.6363152246034,0.800000000000009));
#788=CARTESIAN_POINT('',(0.626722767507384,23.6363152246034,0.));
#789=CARTESIAN_POINT('',(0.626722767507384,23.6363152246034,6.93889390390723E-15));
#790=CARTESIAN_POINT('',(2.91091084309912E-5,23.6363152246034,6.93889390390723E-15));
#791=CARTESIAN_POINT('',(2.04993484873897,24.4579899679781,0.));
#792=CARTESIAN_POINT('',(0.218479454173009,23.4006207528222,0.8));
#793=CARTESIAN_POINT('',(3.59994292930141,25.3528688891314,0.8));
#794=CARTESIAN_POINT('',(3.59994292930142,25.3528688891314,6.93889390390723E-15));
#795=CARTESIAN_POINT('',(3.59994292930142,25.3528688891314,0.));
#796=CARTESIAN_POINT('',(0.218479454173014,23.4006207528222,0.));
#797=CARTESIAN_POINT('',(3.59995909055269,27.1426547235463,0.));
#798=CARTESIAN_POINT('',(3.59992871738606,23.7789632336456,0.8));
#799=CARTESIAN_POINT('',(3.59997392976231,28.7860303964533,0.8));
#800=CARTESIAN_POINT('',(3.59997392976231,28.7860303964533,0.));
#801=CARTESIAN_POINT('',(3.59997392976231,28.7860303964533,0.));
#802=CARTESIAN_POINT('',(3.59992871738607,23.7789632336456,6.93889390390723E-15));
#803=CARTESIAN_POINT('',(3.28658137166491,29.3288535493477,6.93889390390723E-15));
#804=CARTESIAN_POINT('',(4.86810287466989,26.5895208292498,0.8));
#805=CARTESIAN_POINT('',(2.9731888135675,29.871676702242,0.8));
#806=CARTESIAN_POINT('',(2.9731888135675,29.871676702242,0.));
#807=CARTESIAN_POINT('',(2.9731888135675,29.871676702242,0.));
#808=CARTESIAN_POINT('',(4.8681028746699,26.5895208292498,0.));
#809=CARTESIAN_POINT('',(-4.00003201068304,21.6625906763445,0.6));
#810=CARTESIAN_POINT('',(-4.00003201068304,21.6625906763445,1.4));
#811=CARTESIAN_POINT('',(-5.00001395138062,22.6625906763037,1.4));
#812=CARTESIAN_POINT('',(-4.00003201068304,21.6625906763445,1.4));
#813=CARTESIAN_POINT('',(-5.00001395138062,22.6625906763037,0.6));
#814=CARTESIAN_POINT('',(-5.00001395138062,22.6625906763037,0.6));
#815=CARTESIAN_POINT('',(-4.00003201068304,21.6625906763445,0.6));
#816=CARTESIAN_POINT('',(-4.00003201068304,21.6625906763445,0.6));
#817=CARTESIAN_POINT('',(-4.00003201068304,21.6625906763445,0.6));
#818=CARTESIAN_POINT('',(-4.99999695722204,24.5446172468177,0.599999999999989));
#819=CARTESIAN_POINT('',(-4.99999695722204,24.5446172468177,1.39999999999998));
#820=CARTESIAN_POINT('',(-4.99994482415344,30.3181199384791,1.4));
#821=CARTESIAN_POINT('',(-4.99994482415342,30.3181199384791,0.6));
#822=CARTESIAN_POINT('',(-4.99994482415342,30.3181199384791,0.6));
#823=CARTESIAN_POINT('',(-4.99999695722204,24.5446172468177,0.599999999999989));
#824=CARTESIAN_POINT('',(-4.99994482415344,30.3181199384791,0.599999999999989));
#825=CARTESIAN_POINT('',(-4.99994482415344,30.3181199384791,1.39999999999998));
#826=CARTESIAN_POINT('',(8.124217703424E-5,33.2048261357478,1.39999999999998));
#827=CARTESIAN_POINT('',(8.12421770398778E-5,33.2048261357478,0.599999999999983));
#828=CARTESIAN_POINT('',(8.12421770398778E-5,33.2048261357478,0.599999999999983));
#829=CARTESIAN_POINT('',(-4.99994482415344,30.3181199384791,0.599999999999989));
#830=CARTESIAN_POINT('',(8.12421770390796E-5,33.2048261357478,0.6));
#831=CARTESIAN_POINT('',(8.12421770334418E-5,33.2048261357478,1.4));
#832=CARTESIAN_POINT('',(5.00005517543889,30.3180296413556,1.39999999999998));
#833=CARTESIAN_POINT('',(5.0000551754389,30.3180296413556,0.599999999999989));
#834=CARTESIAN_POINT('',(5.0000551754389,30.3180296413556,0.599999999999989));
#835=CARTESIAN_POINT('',(8.12421770390796E-5,33.2048261357478,0.6));
#836=CARTESIAN_POINT('',(5.00005517543891,30.3180296413556,0.599999999999989));
#837=CARTESIAN_POINT('',(5.0000551754389,30.3180296413556,1.39999999999998));
#838=CARTESIAN_POINT('',(4.99998604902706,22.6625906763037,1.4));
#839=CARTESIAN_POINT('',(4.99998604902707,22.6625906763037,0.6));
#840=CARTESIAN_POINT('',(4.99998604902707,22.6625906763037,0.6));
#841=CARTESIAN_POINT('',(5.00005517543891,30.3180296413556,0.599999999999989));
#842=CARTESIAN_POINT('',(4.3999806312241,22.0625960941556,0.6));
#843=CARTESIAN_POINT('',(4.3999806312241,22.0625960941556,1.4));
#844=CARTESIAN_POINT('',(3.99996798948003,21.6625906763445,1.4));
#845=CARTESIAN_POINT('',(3.99996798948004,21.6625906763445,0.6));
#846=CARTESIAN_POINT('',(3.99996798948004,21.6625906763445,0.6));
#847=CARTESIAN_POINT('',(4.3999806312241,22.0625960941556,0.6));
#848=CARTESIAN_POINT('',(3.99996798948003,21.6625906763445,0.6));
#849=CARTESIAN_POINT('',(3.99996798948003,21.6625906763445,1.4));
#850=CARTESIAN_POINT('',(3.99996798948003,21.6625906763445,0.6));
#851=CARTESIAN_POINT('',(1.54999115247346,30.693377389828,6.93889390390723E-15));
#852=CARTESIAN_POINT('',(3.38157803783935,29.6358881567992,0.8));
#853=CARTESIAN_POINT('',(3.38157803783936,29.6358881567992,0.));
#854=CARTESIAN_POINT('',(-2.63397220201849,21.1450419966955,0.));
#855=CARTESIAN_POINT('',(-3.45509070867584,22.9781785583356,-0.715587881991074));
#856=CARTESIAN_POINT('',(-3.75150069956343,22.2625906763445,6.93889390390723E-15));
#857=CARTESIAN_POINT('',(-4.23446053317964,22.9796851861103,-0.165550554897545));
#858=CARTESIAN_POINT('',(-4.40001170726749,22.91111339589,-1.38777878078145E-14));
#859=CARTESIAN_POINT('',(-3.97575146955536,22.4868454962129,0.));
#860=CARTESIAN_POINT('',(-4.4000038701808,23.7790354707357,0.));
#861=CARTESIAN_POINT('',(-4.39994482417788,30.3181145206518,-6.93889390390723E-15));
#862=CARTESIAN_POINT('',(-4.39994795216201,29.9717043591521,0.));
#863=CARTESIAN_POINT('',(-2.86766777628065,29.0870235389712,-1.53228816423223));
#864=CARTESIAN_POINT('',(-3.78142428045526,30.3288017207632,0.));
#865=CARTESIAN_POINT('',(6.37210583543363E-5,31.2644411055154,-1.08042272937287));
#866=CARTESIAN_POINT('',(7.49862088052854E-5,32.5120058127485,-6.93889390390723E-15));
#867=CARTESIAN_POINT('',(0.300076550188636,32.6852081845846,0.));
#868=CARTESIAN_POINT('',(3.78158429379128,30.3287048679135,-6.93889390390723E-15));
#869=CARTESIAN_POINT('',(4.22334513255183,29.8696052402547,-0.176705993712064));
#870=CARTESIAN_POINT('',(4.40005204747924,29.9716248976833,0.));
#871=CARTESIAN_POINT('',(4.70005048347496,29.7984171080198,-6.93889390390723E-15));
#872=CARTESIAN_POINT('',(4.39999612946044,23.7789560092669,0.));
#873=CARTESIAN_POINT('',(4.23445558102663,22.9796918771105,-0.16553333130185));
#874=CARTESIAN_POINT('',(4.39998829318912,22.9111242315449,-1.38777878078145E-14));
#875=CARTESIAN_POINT('',(4.40000304239475,24.5445323675215,-1.38777878078145E-14));
#876=CARTESIAN_POINT('',(2.91091084309912E-5,22.2625906763445,6.93889390390723E-15));
#877=CARTESIAN_POINT('',(3.87630709901626,21.9611382876657,0.301452388678764));
#878=CARTESIAN_POINT('',(3.75144302574007,22.2625906763445,0.));
#879=CARTESIAN_POINT('',(-4.00003201068303,22.2625906763445,6.93889390390723E-15));
#880=CARTESIAN_POINT('',(2.63390472479155,21.1450725573125,0.));
#881=CARTESIAN_POINT('',(3.57570775176791,22.0868585760216,0.));
#882=CARTESIAN_POINT('',(2.91091084309912E-5,23.7789957397036,6.93889390390723E-15));
#883=CARTESIAN_POINT('',(-2.63397220201849,21.1450419966955,0.8));
#884=CARTESIAN_POINT('',(-3.45509070867585,22.9781785583356,0.084412118008928));
#885=CARTESIAN_POINT('',(-3.75150069956343,22.2625906763445,0.8));
#886=CARTESIAN_POINT('',(-3.97575146955537,22.4868454962129,0.8));
#887=CARTESIAN_POINT('',(-4.40001170726749,22.91111339589,0.799999999999988));
#888=CARTESIAN_POINT('',(-4.23446053317965,22.9796851861103,0.634449445102457));
#889=CARTESIAN_POINT('',(-4.40000387018081,23.7790354707357,0.8));
#890=CARTESIAN_POINT('',(-4.39994482417789,30.3181145206518,0.799999999999988));
#891=CARTESIAN_POINT('',(-4.39994795216201,29.9717043591521,0.8));
#892=CARTESIAN_POINT('',(-2.86766777628066,29.0870235389712,-0.732288164232216));
#893=CARTESIAN_POINT('',(-3.78142428045526,30.3288017207632,0.8));
#894=CARTESIAN_POINT('',(6.37210583486985E-5,31.2644411055154,-0.28042272937287));
#895=CARTESIAN_POINT('',(7.49862087996476E-5,32.5120058127485,0.8));
#896=CARTESIAN_POINT('',(0.300076550188631,32.6852081845846,0.8));
#897=CARTESIAN_POINT('',(3.78158429379128,30.3287048679135,0.799999999999988));
#898=CARTESIAN_POINT('',(4.22334513255182,29.8696052402547,0.623294006287939));
#899=CARTESIAN_POINT('',(4.40005204747923,29.9716248976833,0.8));
#900=CARTESIAN_POINT('',(4.70005048347495,29.7984171080198,0.799999999999988));
#901=CARTESIAN_POINT('',(4.39999612946044,23.7789560092669,0.8));
#902=CARTESIAN_POINT('',(4.40000304239474,24.5445323675215,0.799999999999981));
#903=CARTESIAN_POINT('',(4.39998829318911,22.9111242315449,0.799999999999988));
#904=CARTESIAN_POINT('',(4.23445558102662,22.9796918771105,0.634466668698146));
#905=CARTESIAN_POINT('',(2.91091084253533E-5,22.2625906763445,0.8));
#906=CARTESIAN_POINT('',(3.87630709901625,21.9611382876657,1.10145238867876));
#907=CARTESIAN_POINT('',(3.75144302574006,22.2625906763445,0.8));
#908=CARTESIAN_POINT('',(-4.00003201068304,22.2625906763445,0.800000000000009));
#909=CARTESIAN_POINT('',(2.63390472479155,21.1450725573125,0.8));
#910=CARTESIAN_POINT('',(3.5757077517679,22.0868585760216,0.8));
#911=CARTESIAN_POINT('',(2.91091084253533E-5,23.7789957397036,0.800000000000009));
#912=MECHANICAL_DESIGN_GEOMETRIC_PRESENTATION_REPRESENTATION('',(#571),
#913);
#913=(
GEOMETRIC_REPRESENTATION_CONTEXT(3)
GLOBAL_UNCERTAINTY_ASSIGNED_CONTEXT((#914))
GLOBAL_UNIT_ASSIGNED_CONTEXT((#917,#916,#915))
REPRESENTATION_CONTEXT('[o]_LED_filter','TOP_LEVEL_ASSEMBLY_PART')
);
#914=UNCERTAINTY_MEASURE_WITH_UNIT(LENGTH_MEASURE(1.E-5),#917,
'DISTANCE_ACCURACY_VALUE','Maximum Tolerance applied to model');
#915=(
NAMED_UNIT(*)
SI_UNIT($,.STERADIAN.)
SOLID_ANGLE_UNIT()
);
#916=(
NAMED_UNIT(*)
PLANE_ANGLE_UNIT()
SI_UNIT($,.RADIAN.)
);
#917=(
LENGTH_UNIT()
NAMED_UNIT(*)
SI_UNIT(.MILLI.,.METRE.)
);
#918=PRODUCT_DEFINITION_SHAPE('','',#919);
#919=PRODUCT_DEFINITION('','',#921,#920);
#920=PRODUCT_DEFINITION_CONTEXT('',#927,'design');
#921=PRODUCT_DEFINITION_FORMATION_WITH_SPECIFIED_SOURCE('','',#923,
 .NOT_KNOWN.);
#922=PRODUCT_RELATED_PRODUCT_CATEGORY('','',(#923));
#923=PRODUCT('[o]_LED_filter','[o]_LED_filter','[o]_LED_filter',(#925));
#924=PRODUCT_CATEGORY('','');
#925=PRODUCT_CONTEXT('',#927,'mechanical');
#926=APPLICATION_PROTOCOL_DEFINITION('international standard',
'ap242_managed_model_based_3d_engineering',2020,#927);
#927=APPLICATION_CONTEXT('managed model based 3d engineering');
ENDSEC;
END-ISO-10303-21;
