ISO-10303-21;
HEADER;
/* Generated by software containing ST-Developer
 * from STEP Tools, Inc. (www.steptools.com) 
 */
/* OPTION: using custom renumber hook */

FILE_DESCRIPTION(
/* description */ ('STEP AP242 Edition 2',
'CAx-IF Rec.Pracs.---Representation and Presentation of Product Manufa
cturing Information (PMI)---4.0---2014-10-13',
'CAx-IF Rec.Pracs.---3D Tessellated Geometry---0.4---2014-09-14','2;1',
'CAx-IF Rec.Pracs.---User Defined Attributes---1.5---2016-08-15'),
/* implementation_level */ '2;1');

FILE_NAME(
/* name */ 'LED Carrier Parts - [t]_LED_diffuser',
/* time_stamp */ '2026-09-27T04:16:57Z',
/* author */ (''),
/* organization */ (''),
/* preprocessor_version */ 'ST-DEVELOPER v20',
/* originating_system */ 'ONSHAPE BY PTC INC, 1.221',
/* authorisation */ '  ');

FILE_SCHEMA (('AP242_MANAGED_MODEL_BASED_3D_ENGINEERING_MIM_LF { 1 0 10303 442 3 1 4 }'));
ENDSEC;

DATA;
#10=SHAPE_REPRESENTATION_RELATIONSHIP('','',#1048,#11);
#11=ADVANCED_BREP_SHAPE_REPRESENTATION('',(#1046),#1658);
#12=ORIENTED_EDGE('',*,*,#290,.T.);
#13=ORIENTED_EDGE('',*,*,#291,.T.);
#14=ORIENTED_EDGE('',*,*,#292,.T.);
#15=ORIENTED_EDGE('',*,*,#293,.T.);
#16=ORIENTED_EDGE('',*,*,#292,.F.);
#17=ORIENTED_EDGE('',*,*,#294,.T.);
#18=ORIENTED_EDGE('',*,*,#295,.T.);
#19=ORIENTED_EDGE('',*,*,#296,.T.);
#20=ORIENTED_EDGE('',*,*,#295,.F.);
#21=ORIENTED_EDGE('',*,*,#297,.T.);
#22=ORIENTED_EDGE('',*,*,#298,.T.);
#23=ORIENTED_EDGE('',*,*,#299,.T.);
#24=ORIENTED_EDGE('',*,*,#298,.F.);
#25=ORIENTED_EDGE('',*,*,#300,.T.);
#26=ORIENTED_EDGE('',*,*,#301,.T.);
#27=ORIENTED_EDGE('',*,*,#302,.T.);
#28=ORIENTED_EDGE('',*,*,#303,.T.);
#29=ORIENTED_EDGE('',*,*,#304,.T.);
#30=ORIENTED_EDGE('',*,*,#305,.T.);
#31=ORIENTED_EDGE('',*,*,#306,.T.);
#32=ORIENTED_EDGE('',*,*,#307,.T.);
#33=ORIENTED_EDGE('',*,*,#308,.T.);
#34=ORIENTED_EDGE('',*,*,#309,.T.);
#35=ORIENTED_EDGE('',*,*,#305,.F.);
#36=ORIENTED_EDGE('',*,*,#310,.F.);
#37=ORIENTED_EDGE('',*,*,#311,.F.);
#38=ORIENTED_EDGE('',*,*,#309,.F.);
#39=ORIENTED_EDGE('',*,*,#312,.F.);
#40=ORIENTED_EDGE('',*,*,#313,.F.);
#41=ORIENTED_EDGE('',*,*,#306,.F.);
#42=ORIENTED_EDGE('',*,*,#313,.T.);
#43=ORIENTED_EDGE('',*,*,#314,.F.);
#44=ORIENTED_EDGE('',*,*,#315,.F.);
#45=ORIENTED_EDGE('',*,*,#307,.F.);
#46=ORIENTED_EDGE('',*,*,#315,.T.);
#47=ORIENTED_EDGE('',*,*,#316,.F.);
#48=ORIENTED_EDGE('',*,*,#317,.F.);
#49=ORIENTED_EDGE('',*,*,#308,.F.);
#50=ORIENTED_EDGE('',*,*,#317,.T.);
#51=ORIENTED_EDGE('',*,*,#318,.F.);
#52=ORIENTED_EDGE('',*,*,#319,.T.);
#53=ORIENTED_EDGE('',*,*,#303,.F.);
#54=ORIENTED_EDGE('',*,*,#310,.T.);
#55=ORIENTED_EDGE('',*,*,#304,.F.);
#56=ORIENTED_EDGE('',*,*,#319,.F.);
#57=ORIENTED_EDGE('',*,*,#320,.F.);
#58=ORIENTED_EDGE('',*,*,#321,.T.);
#59=ORIENTED_EDGE('',*,*,#322,.T.);
#60=ORIENTED_EDGE('',*,*,#323,.T.);
#61=ORIENTED_EDGE('',*,*,#324,.T.);
#62=ORIENTED_EDGE('',*,*,#325,.T.);
#63=ORIENTED_EDGE('',*,*,#326,.T.);
#64=ORIENTED_EDGE('',*,*,#327,.T.);
#65=ORIENTED_EDGE('',*,*,#320,.T.);
#66=ORIENTED_EDGE('',*,*,#318,.T.);
#67=ORIENTED_EDGE('',*,*,#316,.T.);
#68=ORIENTED_EDGE('',*,*,#314,.T.);
#69=ORIENTED_EDGE('',*,*,#312,.T.);
#70=ORIENTED_EDGE('',*,*,#311,.T.);
#71=ORIENTED_EDGE('',*,*,#328,.T.);
#72=ORIENTED_EDGE('',*,*,#329,.T.);
#73=ORIENTED_EDGE('',*,*,#330,.T.);
#74=ORIENTED_EDGE('',*,*,#331,.T.);
#75=ORIENTED_EDGE('',*,*,#332,.T.);
#76=ORIENTED_EDGE('',*,*,#333,.T.);
#77=ORIENTED_EDGE('',*,*,#334,.T.);
#78=ORIENTED_EDGE('',*,*,#335,.T.);
#79=ORIENTED_EDGE('',*,*,#336,.T.);
#80=ORIENTED_EDGE('',*,*,#337,.T.);
#81=ORIENTED_EDGE('',*,*,#338,.T.);
#82=ORIENTED_EDGE('',*,*,#339,.T.);
#83=ORIENTED_EDGE('',*,*,#340,.T.);
#84=ORIENTED_EDGE('',*,*,#341,.T.);
#85=ORIENTED_EDGE('',*,*,#342,.T.);
#86=ORIENTED_EDGE('',*,*,#343,.T.);
#87=ORIENTED_EDGE('',*,*,#344,.F.);
#88=ORIENTED_EDGE('',*,*,#345,.F.);
#89=ORIENTED_EDGE('',*,*,#346,.F.);
#90=ORIENTED_EDGE('',*,*,#347,.F.);
#91=ORIENTED_EDGE('',*,*,#348,.T.);
#92=ORIENTED_EDGE('',*,*,#349,.T.);
#93=ORIENTED_EDGE('',*,*,#350,.T.);
#94=ORIENTED_EDGE('',*,*,#351,.T.);
#95=ORIENTED_EDGE('',*,*,#347,.T.);
#96=ORIENTED_EDGE('',*,*,#349,.F.);
#97=ORIENTED_EDGE('',*,*,#352,.T.);
#98=ORIENTED_EDGE('',*,*,#353,.F.);
#99=ORIENTED_EDGE('',*,*,#354,.T.);
#100=ORIENTED_EDGE('',*,*,#355,.F.);
#101=ORIENTED_EDGE('',*,*,#356,.T.);
#102=ORIENTED_EDGE('',*,*,#357,.T.);
#103=ORIENTED_EDGE('',*,*,#358,.T.);
#104=ORIENTED_EDGE('',*,*,#359,.F.);
#105=ORIENTED_EDGE('',*,*,#360,.T.);
#106=ORIENTED_EDGE('',*,*,#361,.T.);
#107=ORIENTED_EDGE('',*,*,#357,.F.);
#108=ORIENTED_EDGE('',*,*,#362,.T.);
#109=ORIENTED_EDGE('',*,*,#363,.T.);
#110=ORIENTED_EDGE('',*,*,#360,.F.);
#111=ORIENTED_EDGE('',*,*,#364,.F.);
#112=ORIENTED_EDGE('',*,*,#345,.T.);
#113=ORIENTED_EDGE('',*,*,#365,.T.);
#114=ORIENTED_EDGE('',*,*,#355,.T.);
#115=ORIENTED_EDGE('',*,*,#366,.T.);
#116=ORIENTED_EDGE('',*,*,#362,.F.);
#117=ORIENTED_EDGE('',*,*,#344,.T.);
#118=ORIENTED_EDGE('',*,*,#367,.F.);
#119=ORIENTED_EDGE('',*,*,#368,.F.);
#120=ORIENTED_EDGE('',*,*,#339,.F.);
#121=ORIENTED_EDGE('',*,*,#351,.F.);
#122=ORIENTED_EDGE('',*,*,#369,.T.);
#123=ORIENTED_EDGE('',*,*,#353,.T.);
#124=ORIENTED_EDGE('',*,*,#370,.T.);
#125=ORIENTED_EDGE('',*,*,#367,.T.);
#126=ORIENTED_EDGE('',*,*,#371,.T.);
#127=ORIENTED_EDGE('',*,*,#372,.F.);
#128=ORIENTED_EDGE('',*,*,#373,.T.);
#129=ORIENTED_EDGE('',*,*,#374,.T.);
#130=ORIENTED_EDGE('',*,*,#375,.T.);
#131=ORIENTED_EDGE('',*,*,#376,.F.);
#132=ORIENTED_EDGE('',*,*,#372,.T.);
#133=ORIENTED_EDGE('',*,*,#377,.T.);
#134=ORIENTED_EDGE('',*,*,#378,.F.);
#135=ORIENTED_EDGE('',*,*,#379,.T.);
#136=ORIENTED_EDGE('',*,*,#380,.F.);
#137=ORIENTED_EDGE('',*,*,#341,.F.);
#138=ORIENTED_EDGE('',*,*,#381,.T.);
#139=ORIENTED_EDGE('',*,*,#378,.T.);
#140=ORIENTED_EDGE('',*,*,#374,.F.);
#141=ORIENTED_EDGE('',*,*,#382,.F.);
#142=ORIENTED_EDGE('',*,*,#342,.F.);
#143=ORIENTED_EDGE('',*,*,#380,.T.);
#144=ORIENTED_EDGE('',*,*,#383,.T.);
#145=ORIENTED_EDGE('',*,*,#384,.T.);
#146=ORIENTED_EDGE('',*,*,#385,.T.);
#147=ORIENTED_EDGE('',*,*,#386,.T.);
#148=ORIENTED_EDGE('',*,*,#387,.T.);
#149=ORIENTED_EDGE('',*,*,#388,.T.);
#150=ORIENTED_EDGE('',*,*,#389,.T.);
#151=ORIENTED_EDGE('',*,*,#390,.T.);
#152=ORIENTED_EDGE('',*,*,#391,.T.);
#153=ORIENTED_EDGE('',*,*,#392,.T.);
#154=ORIENTED_EDGE('',*,*,#393,.T.);
#155=ORIENTED_EDGE('',*,*,#394,.T.);
#156=ORIENTED_EDGE('',*,*,#395,.T.);
#157=ORIENTED_EDGE('',*,*,#396,.F.);
#158=ORIENTED_EDGE('',*,*,#336,.F.);
#159=ORIENTED_EDGE('',*,*,#397,.F.);
#160=ORIENTED_EDGE('',*,*,#299,.F.);
#161=ORIENTED_EDGE('',*,*,#397,.T.);
#162=ORIENTED_EDGE('',*,*,#335,.F.);
#163=ORIENTED_EDGE('',*,*,#398,.F.);
#164=ORIENTED_EDGE('',*,*,#296,.F.);
#165=ORIENTED_EDGE('',*,*,#302,.F.);
#166=ORIENTED_EDGE('',*,*,#399,.T.);
#167=ORIENTED_EDGE('',*,*,#337,.F.);
#168=ORIENTED_EDGE('',*,*,#396,.T.);
#169=ORIENTED_EDGE('',*,*,#334,.F.);
#170=ORIENTED_EDGE('',*,*,#400,.T.);
#171=ORIENTED_EDGE('',*,*,#293,.F.);
#172=ORIENTED_EDGE('',*,*,#398,.T.);
#173=ORIENTED_EDGE('',*,*,#401,.F.);
#174=ORIENTED_EDGE('',*,*,#383,.F.);
#175=ORIENTED_EDGE('',*,*,#402,.F.);
#176=ORIENTED_EDGE('',*,*,#395,.F.);
#177=ORIENTED_EDGE('',*,*,#402,.T.);
#178=ORIENTED_EDGE('',*,*,#379,.F.);
#179=ORIENTED_EDGE('',*,*,#403,.F.);
#180=ORIENTED_EDGE('',*,*,#392,.F.);
#181=ORIENTED_EDGE('',*,*,#401,.T.);
#182=ORIENTED_EDGE('',*,*,#394,.F.);
#183=ORIENTED_EDGE('',*,*,#404,.F.);
#184=ORIENTED_EDGE('',*,*,#375,.F.);
#185=ORIENTED_EDGE('',*,*,#403,.T.);
#186=ORIENTED_EDGE('',*,*,#377,.F.);
#187=ORIENTED_EDGE('',*,*,#404,.T.);
#188=ORIENTED_EDGE('',*,*,#393,.F.);
#189=ORIENTED_EDGE('',*,*,#405,.F.);
#190=ORIENTED_EDGE('',*,*,#366,.F.);
#191=ORIENTED_EDGE('',*,*,#406,.F.);
#192=ORIENTED_EDGE('',*,*,#391,.F.);
#193=ORIENTED_EDGE('',*,*,#406,.T.);
#194=ORIENTED_EDGE('',*,*,#358,.F.);
#195=ORIENTED_EDGE('',*,*,#407,.F.);
#196=ORIENTED_EDGE('',*,*,#388,.F.);
#197=ORIENTED_EDGE('',*,*,#405,.T.);
#198=ORIENTED_EDGE('',*,*,#390,.F.);
#199=ORIENTED_EDGE('',*,*,#408,.F.);
#200=ORIENTED_EDGE('',*,*,#363,.F.);
#201=ORIENTED_EDGE('',*,*,#407,.T.);
#202=ORIENTED_EDGE('',*,*,#361,.F.);
#203=ORIENTED_EDGE('',*,*,#408,.T.);
#204=ORIENTED_EDGE('',*,*,#389,.F.);
#205=ORIENTED_EDGE('',*,*,#409,.F.);
#206=ORIENTED_EDGE('',*,*,#350,.F.);
#207=ORIENTED_EDGE('',*,*,#410,.F.);
#208=ORIENTED_EDGE('',*,*,#387,.F.);
#209=ORIENTED_EDGE('',*,*,#410,.T.);
#210=ORIENTED_EDGE('',*,*,#354,.F.);
#211=ORIENTED_EDGE('',*,*,#411,.F.);
#212=ORIENTED_EDGE('',*,*,#384,.F.);
#213=ORIENTED_EDGE('',*,*,#409,.T.);
#214=ORIENTED_EDGE('',*,*,#386,.F.);
#215=ORIENTED_EDGE('',*,*,#412,.F.);
#216=ORIENTED_EDGE('',*,*,#369,.F.);
#217=ORIENTED_EDGE('',*,*,#411,.T.);
#218=ORIENTED_EDGE('',*,*,#371,.F.);
#219=ORIENTED_EDGE('',*,*,#412,.T.);
#220=ORIENTED_EDGE('',*,*,#385,.F.);
#221=ORIENTED_EDGE('',*,*,#301,.F.);
#222=ORIENTED_EDGE('',*,*,#413,.T.);
#223=ORIENTED_EDGE('',*,*,#328,.F.);
#224=ORIENTED_EDGE('',*,*,#414,.T.);
#225=ORIENTED_EDGE('',*,*,#330,.F.);
#226=ORIENTED_EDGE('',*,*,#415,.T.);
#227=ORIENTED_EDGE('',*,*,#290,.F.);
#228=ORIENTED_EDGE('',*,*,#416,.T.);
#229=ORIENTED_EDGE('',*,*,#399,.F.);
#230=ORIENTED_EDGE('',*,*,#414,.F.);
#231=ORIENTED_EDGE('',*,*,#417,.F.);
#232=ORIENTED_EDGE('',*,*,#338,.F.);
#233=ORIENTED_EDGE('',*,*,#417,.T.);
#234=ORIENTED_EDGE('',*,*,#331,.F.);
#235=ORIENTED_EDGE('',*,*,#418,.F.);
#236=ORIENTED_EDGE('',*,*,#332,.F.);
#237=ORIENTED_EDGE('',*,*,#418,.T.);
#238=ORIENTED_EDGE('',*,*,#416,.F.);
#239=ORIENTED_EDGE('',*,*,#400,.F.);
#240=ORIENTED_EDGE('',*,*,#333,.F.);
#241=ORIENTED_EDGE('',*,*,#419,.F.);
#242=ORIENTED_EDGE('',*,*,#297,.F.);
#243=ORIENTED_EDGE('',*,*,#420,.F.);
#244=ORIENTED_EDGE('',*,*,#325,.F.);
#245=ORIENTED_EDGE('',*,*,#420,.T.);
#246=ORIENTED_EDGE('',*,*,#294,.F.);
#247=ORIENTED_EDGE('',*,*,#421,.F.);
#248=ORIENTED_EDGE('',*,*,#326,.F.);
#249=ORIENTED_EDGE('',*,*,#419,.T.);
#250=ORIENTED_EDGE('',*,*,#324,.F.);
#251=ORIENTED_EDGE('',*,*,#422,.F.);
#252=ORIENTED_EDGE('',*,*,#300,.F.);
#253=ORIENTED_EDGE('',*,*,#421,.T.);
#254=ORIENTED_EDGE('',*,*,#291,.F.);
#255=ORIENTED_EDGE('',*,*,#423,.F.);
#256=ORIENTED_EDGE('',*,*,#327,.F.);
#257=ORIENTED_EDGE('',*,*,#422,.T.);
#258=ORIENTED_EDGE('',*,*,#323,.F.);
#259=ORIENTED_EDGE('',*,*,#424,.F.);
#260=ORIENTED_EDGE('',*,*,#413,.F.);
#261=ORIENTED_EDGE('',*,*,#423,.T.);
#262=ORIENTED_EDGE('',*,*,#415,.F.);
#263=ORIENTED_EDGE('',*,*,#425,.F.);
#264=ORIENTED_EDGE('',*,*,#321,.F.);
#265=ORIENTED_EDGE('',*,*,#424,.T.);
#266=ORIENTED_EDGE('',*,*,#322,.F.);
#267=ORIENTED_EDGE('',*,*,#425,.T.);
#268=ORIENTED_EDGE('',*,*,#329,.F.);
#269=ORIENTED_EDGE('',*,*,#356,.F.);
#270=ORIENTED_EDGE('',*,*,#426,.F.);
#271=ORIENTED_EDGE('',*,*,#373,.F.);
#272=ORIENTED_EDGE('',*,*,#376,.T.);
#273=ORIENTED_EDGE('',*,*,#427,.F.);
#274=ORIENTED_EDGE('',*,*,#370,.F.);
#275=ORIENTED_EDGE('',*,*,#352,.F.);
#276=ORIENTED_EDGE('',*,*,#428,.T.);
#277=ORIENTED_EDGE('',*,*,#359,.T.);
#278=ORIENTED_EDGE('',*,*,#346,.T.);
#279=ORIENTED_EDGE('',*,*,#364,.T.);
#280=ORIENTED_EDGE('',*,*,#428,.F.);
#281=ORIENTED_EDGE('',*,*,#348,.F.);
#282=ORIENTED_EDGE('',*,*,#343,.F.);
#283=ORIENTED_EDGE('',*,*,#382,.T.);
#284=ORIENTED_EDGE('',*,*,#426,.T.);
#285=ORIENTED_EDGE('',*,*,#365,.F.);
#286=ORIENTED_EDGE('',*,*,#340,.F.);
#287=ORIENTED_EDGE('',*,*,#368,.T.);
#288=ORIENTED_EDGE('',*,*,#427,.T.);
#289=ORIENTED_EDGE('',*,*,#381,.F.);
#290=EDGE_CURVE('',#429,#430,#511,.T.);
#291=EDGE_CURVE('',#430,#431,#512,.T.);
#292=EDGE_CURVE('',#431,#432,#513,.T.);
#293=EDGE_CURVE('',#432,#429,#514,.T.);
#294=EDGE_CURVE('',#431,#433,#515,.T.);
#295=EDGE_CURVE('',#433,#434,#516,.T.);
#296=EDGE_CURVE('',#434,#432,#517,.T.);
#297=EDGE_CURVE('',#433,#435,#518,.T.);
#298=EDGE_CURVE('',#435,#436,#519,.T.);
#299=EDGE_CURVE('',#436,#434,#520,.T.);
#300=EDGE_CURVE('',#435,#437,#521,.T.);
#301=EDGE_CURVE('',#437,#438,#522,.T.);
#302=EDGE_CURVE('',#438,#436,#523,.T.);
#303=EDGE_CURVE('',#439,#440,#524,.F.);
#304=EDGE_CURVE('',#440,#441,#525,.F.);
#305=EDGE_CURVE('',#441,#442,#526,.F.);
#306=EDGE_CURVE('',#442,#443,#527,.F.);
#307=EDGE_CURVE('',#443,#444,#528,.F.);
#308=EDGE_CURVE('',#444,#439,#529,.F.);
#309=EDGE_CURVE('',#445,#442,#530,.T.);
#310=EDGE_CURVE('',#446,#441,#531,.T.);
#311=EDGE_CURVE('',#445,#446,#532,.F.);
#312=EDGE_CURVE('',#447,#445,#533,.F.);
#313=EDGE_CURVE('',#443,#447,#534,.T.);
#314=EDGE_CURVE('',#448,#447,#535,.F.);
#315=EDGE_CURVE('',#444,#448,#536,.T.);
#316=EDGE_CURVE('',#449,#448,#537,.F.);
#317=EDGE_CURVE('',#439,#449,#538,.T.);
#318=EDGE_CURVE('',#450,#449,#539,.F.);
#319=EDGE_CURVE('',#450,#440,#540,.T.);
#320=EDGE_CURVE('',#446,#450,#541,.F.);
#321=EDGE_CURVE('',#451,#452,#542,.T.);
#322=EDGE_CURVE('',#452,#453,#543,.T.);
#323=EDGE_CURVE('',#453,#454,#544,.T.);
#324=EDGE_CURVE('',#454,#455,#545,.T.);
#325=EDGE_CURVE('',#455,#456,#546,.T.);
#326=EDGE_CURVE('',#456,#457,#547,.T.);
#327=EDGE_CURVE('',#457,#451,#548,.T.);
#328=EDGE_CURVE('',#458,#459,#549,.T.);
#329=EDGE_CURVE('',#459,#460,#550,.T.);
#330=EDGE_CURVE('',#460,#461,#551,.T.);
#331=EDGE_CURVE('',#461,#458,#552,.T.);
#332=EDGE_CURVE('',#462,#463,#553,.T.);
#333=EDGE_CURVE('',#463,#464,#554,.T.);
#334=EDGE_CURVE('',#464,#465,#555,.T.);
#335=EDGE_CURVE('',#465,#466,#556,.T.);
#336=EDGE_CURVE('',#466,#467,#557,.T.);
#337=EDGE_CURVE('',#467,#468,#558,.T.);
#338=EDGE_CURVE('',#468,#462,#559,.T.);
#339=EDGE_CURVE('',#469,#470,#560,.T.);
#340=EDGE_CURVE('',#470,#471,#561,.T.);
#341=EDGE_CURVE('',#471,#472,#562,.T.);
#342=EDGE_CURVE('',#472,#473,#563,.T.);
#343=EDGE_CURVE('',#473,#474,#564,.T.);
#344=EDGE_CURVE('',#475,#474,#565,.T.);
#345=EDGE_CURVE('',#476,#475,#566,.T.);
#346=EDGE_CURVE('',#477,#476,#567,.T.);
#347=EDGE_CURVE('',#469,#477,#568,.T.);
#348=EDGE_CURVE('',#477,#478,#569,.T.);
#349=EDGE_CURVE('',#478,#479,#570,.T.);
#350=EDGE_CURVE('',#479,#480,#571,.T.);
#351=EDGE_CURVE('',#480,#469,#572,.T.);
#352=EDGE_CURVE('',#478,#481,#573,.T.);
#353=EDGE_CURVE('',#482,#481,#574,.T.);
#354=EDGE_CURVE('',#482,#479,#575,.T.);
#355=EDGE_CURVE('',#483,#484,#576,.T.);
#356=EDGE_CURVE('',#483,#485,#577,.T.);
#357=EDGE_CURVE('',#485,#486,#578,.T.);
#358=EDGE_CURVE('',#486,#484,#579,.T.);
#359=EDGE_CURVE('',#487,#485,#580,.T.);
#360=EDGE_CURVE('',#487,#488,#581,.T.);
#361=EDGE_CURVE('',#488,#486,#582,.T.);
#362=EDGE_CURVE('',#475,#489,#583,.T.);
#363=EDGE_CURVE('',#489,#488,#584,.T.);
#364=EDGE_CURVE('',#476,#487,#585,.T.);
#365=EDGE_CURVE('',#474,#483,#586,.T.);
#366=EDGE_CURVE('',#484,#489,#587,.T.);
#367=EDGE_CURVE('',#490,#491,#588,.T.);
#368=EDGE_CURVE('',#470,#490,#589,.T.);
#369=EDGE_CURVE('',#480,#491,#590,.T.);
#370=EDGE_CURVE('',#481,#490,#591,.T.);
#371=EDGE_CURVE('',#491,#482,#592,.T.);
#372=EDGE_CURVE('',#492,#493,#593,.T.);
#373=EDGE_CURVE('',#492,#494,#594,.T.);
#374=EDGE_CURVE('',#494,#495,#595,.T.);
#375=EDGE_CURVE('',#495,#493,#596,.T.);
#376=EDGE_CURVE('',#492,#496,#597,.T.);
#377=EDGE_CURVE('',#493,#497,#598,.T.);
#378=EDGE_CURVE('',#496,#497,#599,.T.);
#379=EDGE_CURVE('',#497,#498,#600,.T.);
#380=EDGE_CURVE('',#472,#498,#601,.T.);
#381=EDGE_CURVE('',#471,#496,#602,.T.);
#382=EDGE_CURVE('',#473,#494,#603,.T.);
#383=EDGE_CURVE('',#498,#495,#604,.T.);
#384=EDGE_CURVE('',#499,#500,#605,.T.);
#385=EDGE_CURVE('',#500,#501,#606,.T.);
#386=EDGE_CURVE('',#501,#502,#607,.T.);
#387=EDGE_CURVE('',#502,#499,#608,.T.);
#388=EDGE_CURVE('',#503,#504,#609,.T.);
#389=EDGE_CURVE('',#504,#505,#610,.T.);
#390=EDGE_CURVE('',#505,#506,#611,.T.);
#391=EDGE_CURVE('',#506,#503,#612,.T.);
#392=EDGE_CURVE('',#507,#508,#613,.T.);
#393=EDGE_CURVE('',#508,#509,#614,.T.);
#394=EDGE_CURVE('',#509,#510,#615,.T.);
#395=EDGE_CURVE('',#510,#507,#616,.T.);
#396=EDGE_CURVE('',#467,#436,#617,.F.);
#397=EDGE_CURVE('',#434,#466,#618,.T.);
#398=EDGE_CURVE('',#432,#465,#619,.T.);
#399=EDGE_CURVE('',#438,#468,#620,.F.);
#400=EDGE_CURVE('',#464,#429,#621,.F.);
#401=EDGE_CURVE('',#495,#510,#622,.T.);
#402=EDGE_CURVE('',#507,#498,#623,.T.);
#403=EDGE_CURVE('',#508,#497,#624,.F.);
#404=EDGE_CURVE('',#493,#509,#625,.T.);
#405=EDGE_CURVE('',#489,#506,#626,.T.);
#406=EDGE_CURVE('',#503,#484,#627,.T.);
#407=EDGE_CURVE('',#504,#486,#628,.T.);
#408=EDGE_CURVE('',#488,#505,#629,.F.);
#409=EDGE_CURVE('',#480,#502,#630,.F.);
#410=EDGE_CURVE('',#499,#479,#631,.F.);
#411=EDGE_CURVE('',#500,#482,#632,.F.);
#412=EDGE_CURVE('',#491,#501,#633,.T.);
#413=EDGE_CURVE('',#437,#459,#634,.F.);
#414=EDGE_CURVE('',#458,#438,#635,.F.);
#415=EDGE_CURVE('',#460,#430,#636,.F.);
#416=EDGE_CURVE('',#429,#461,#637,.F.);
#417=EDGE_CURVE('',#462,#458,#638,.T.);
#418=EDGE_CURVE('',#463,#461,#639,.T.);
#419=EDGE_CURVE('',#435,#455,#640,.F.);
#420=EDGE_CURVE('',#456,#433,#641,.T.);
#421=EDGE_CURVE('',#457,#431,#642,.T.);
#422=EDGE_CURVE('',#437,#454,#643,.T.);
#423=EDGE_CURVE('',#451,#430,#644,.F.);
#424=EDGE_CURVE('',#459,#453,#645,.T.);
#425=EDGE_CURVE('',#452,#460,#646,.T.);
#426=EDGE_CURVE('',#494,#483,#647,.T.);
#427=EDGE_CURVE('',#490,#496,#648,.T.);
#428=EDGE_CURVE('',#478,#487,#649,.T.);
#429=VERTEX_POINT('',#1377);
#430=VERTEX_POINT('',#1378);
#431=VERTEX_POINT('',#1380);
#432=VERTEX_POINT('',#1382);
#433=VERTEX_POINT('',#1386);
#434=VERTEX_POINT('',#1388);
#435=VERTEX_POINT('',#1392);
#436=VERTEX_POINT('',#1394);
#437=VERTEX_POINT('',#1398);
#438=VERTEX_POINT('',#1400);
#439=VERTEX_POINT('',#1404);
#440=VERTEX_POINT('',#1405);
#441=VERTEX_POINT('',#1407);
#442=VERTEX_POINT('',#1409);
#443=VERTEX_POINT('',#1411);
#444=VERTEX_POINT('',#1413);
#445=VERTEX_POINT('',#1417);
#446=VERTEX_POINT('',#1419);
#447=VERTEX_POINT('',#1423);
#448=VERTEX_POINT('',#1427);
#449=VERTEX_POINT('',#1431);
#450=VERTEX_POINT('',#1435);
#451=VERTEX_POINT('',#1441);
#452=VERTEX_POINT('',#1442);
#453=VERTEX_POINT('',#1444);
#454=VERTEX_POINT('',#1446);
#455=VERTEX_POINT('',#1448);
#456=VERTEX_POINT('',#1450);
#457=VERTEX_POINT('',#1452);
#458=VERTEX_POINT('',#1456);
#459=VERTEX_POINT('',#1457);
#460=VERTEX_POINT('',#1459);
#461=VERTEX_POINT('',#1461);
#462=VERTEX_POINT('',#1465);
#463=VERTEX_POINT('',#1466);
#464=VERTEX_POINT('',#1468);
#465=VERTEX_POINT('',#1470);
#466=VERTEX_POINT('',#1472);
#467=VERTEX_POINT('',#1474);
#468=VERTEX_POINT('',#1476);
#469=VERTEX_POINT('',#1479);
#470=VERTEX_POINT('',#1480);
#471=VERTEX_POINT('',#1482);
#472=VERTEX_POINT('',#1484);
#473=VERTEX_POINT('',#1486);
#474=VERTEX_POINT('',#1488);
#475=VERTEX_POINT('',#1490);
#476=VERTEX_POINT('',#1492);
#477=VERTEX_POINT('',#1494);
#478=VERTEX_POINT('',#1498);
#479=VERTEX_POINT('',#1500);
#480=VERTEX_POINT('',#1502);
#481=VERTEX_POINT('',#1506);
#482=VERTEX_POINT('',#1508);
#483=VERTEX_POINT('',#1512);
#484=VERTEX_POINT('',#1513);
#485=VERTEX_POINT('',#1515);
#486=VERTEX_POINT('',#1517);
#487=VERTEX_POINT('',#1521);
#488=VERTEX_POINT('',#1523);
#489=VERTEX_POINT('',#1527);
#490=VERTEX_POINT('',#1535);
#491=VERTEX_POINT('',#1536);
#492=VERTEX_POINT('',#1544);
#493=VERTEX_POINT('',#1545);
#494=VERTEX_POINT('',#1547);
#495=VERTEX_POINT('',#1549);
#496=VERTEX_POINT('',#1553);
#497=VERTEX_POINT('',#1555);
#498=VERTEX_POINT('',#1559);
#499=VERTEX_POINT('',#1567);
#500=VERTEX_POINT('',#1568);
#501=VERTEX_POINT('',#1570);
#502=VERTEX_POINT('',#1572);
#503=VERTEX_POINT('',#1576);
#504=VERTEX_POINT('',#1577);
#505=VERTEX_POINT('',#1579);
#506=VERTEX_POINT('',#1581);
#507=VERTEX_POINT('',#1585);
#508=VERTEX_POINT('',#1586);
#509=VERTEX_POINT('',#1588);
#510=VERTEX_POINT('',#1590);
#511=LINE('',#1376,#650);
#512=LINE('',#1379,#651);
#513=LINE('',#1381,#652);
#514=LINE('',#1383,#653);
#515=LINE('',#1385,#654);
#516=LINE('',#1387,#655);
#517=LINE('',#1389,#656);
#518=LINE('',#1391,#657);
#519=LINE('',#1393,#658);
#520=LINE('',#1395,#659);
#521=LINE('',#1397,#660);
#522=LINE('',#1399,#661);
#523=LINE('',#1401,#662);
#524=LINE('',#1403,#663);
#525=LINE('',#1406,#664);
#526=LINE('',#1408,#665);
#527=LINE('',#1410,#666);
#528=LINE('',#1412,#667);
#529=LINE('',#1414,#668);
#530=LINE('',#1416,#669);
#531=LINE('',#1418,#670);
#532=LINE('',#1420,#671);
#533=LINE('',#1422,#672);
#534=LINE('',#1424,#673);
#535=LINE('',#1426,#674);
#536=LINE('',#1428,#675);
#537=LINE('',#1430,#676);
#538=LINE('',#1432,#677);
#539=LINE('',#1434,#678);
#540=LINE('',#1436,#679);
#541=LINE('',#1438,#680);
#542=LINE('',#1440,#681);
#543=LINE('',#1443,#682);
#544=LINE('',#1445,#683);
#545=LINE('',#1447,#684);
#546=LINE('',#1449,#685);
#547=LINE('',#1451,#686);
#548=LINE('',#1453,#687);
#549=LINE('',#1455,#688);
#550=LINE('',#1458,#689);
#551=LINE('',#1460,#690);
#552=LINE('',#1462,#691);
#553=LINE('',#1464,#692);
#554=LINE('',#1467,#693);
#555=LINE('',#1469,#694);
#556=LINE('',#1471,#695);
#557=LINE('',#1473,#696);
#558=LINE('',#1475,#697);
#559=LINE('',#1477,#698);
#560=LINE('',#1478,#699);
#561=LINE('',#1481,#700);
#562=LINE('',#1483,#701);
#563=LINE('',#1485,#702);
#564=LINE('',#1487,#703);
#565=LINE('',#1489,#704);
#566=LINE('',#1491,#705);
#567=LINE('',#1493,#706);
#568=LINE('',#1495,#707);
#569=LINE('',#1497,#708);
#570=LINE('',#1499,#709);
#571=LINE('',#1501,#710);
#572=LINE('',#1503,#711);
#573=LINE('',#1505,#712);
#574=LINE('',#1507,#713);
#575=LINE('',#1509,#714);
#576=LINE('',#1511,#715);
#577=LINE('',#1514,#716);
#578=LINE('',#1516,#717);
#579=LINE('',#1518,#718);
#580=LINE('',#1520,#719);
#581=LINE('',#1522,#720);
#582=LINE('',#1524,#721);
#583=LINE('',#1526,#722);
#584=LINE('',#1528,#723);
#585=LINE('',#1529,#724);
#586=LINE('',#1531,#725);
#587=LINE('',#1532,#726);
#588=LINE('',#1534,#727);
#589=LINE('',#1537,#728);
#590=LINE('',#1538,#729);
#591=LINE('',#1540,#730);
#592=LINE('',#1541,#731);
#593=LINE('',#1543,#732);
#594=LINE('',#1546,#733);
#595=LINE('',#1548,#734);
#596=LINE('',#1550,#735);
#597=LINE('',#1552,#736);
#598=LINE('',#1554,#737);
#599=LINE('',#1556,#738);
#600=LINE('',#1558,#739);
#601=LINE('',#1560,#740);
#602=LINE('',#1561,#741);
#603=LINE('',#1563,#742);
#604=LINE('',#1564,#743);
#605=LINE('',#1566,#744);
#606=LINE('',#1569,#745);
#607=LINE('',#1571,#746);
#608=LINE('',#1573,#747);
#609=LINE('',#1575,#748);
#610=LINE('',#1578,#749);
#611=LINE('',#1580,#750);
#612=LINE('',#1582,#751);
#613=LINE('',#1584,#752);
#614=LINE('',#1587,#753);
#615=LINE('',#1589,#754);
#616=LINE('',#1591,#755);
#617=LINE('',#1593,#756);
#618=LINE('',#1594,#757);
#619=LINE('',#1596,#758);
#620=LINE('',#1598,#759);
#621=LINE('',#1600,#760);
#622=LINE('',#1602,#761);
#623=LINE('',#1603,#762);
#624=LINE('',#1605,#763);
#625=LINE('',#1607,#764);
#626=LINE('',#1610,#765);
#627=LINE('',#1611,#766);
#628=LINE('',#1613,#767);
#629=LINE('',#1615,#768);
#630=LINE('',#1618,#769);
#631=LINE('',#1619,#770);
#632=LINE('',#1621,#771);
#633=LINE('',#1623,#772);
#634=LINE('',#1626,#773);
#635=LINE('',#1627,#774);
#636=LINE('',#1629,#775);
#637=LINE('',#1630,#776);
#638=LINE('',#1632,#777);
#639=LINE('',#1634,#778);
#640=LINE('',#1637,#779);
#641=LINE('',#1638,#780);
#642=LINE('',#1640,#781);
#643=LINE('',#1642,#782);
#644=LINE('',#1644,#783);
#645=LINE('',#1646,#784);
#646=LINE('',#1648,#785);
#647=LINE('',#1651,#786);
#648=LINE('',#1652,#787);
#649=LINE('',#1653,#788);
#650=VECTOR('',#1115,1000.);
#651=VECTOR('',#1116,1000.);
#652=VECTOR('',#1117,1000.);
#653=VECTOR('',#1118,1000.);
#654=VECTOR('',#1121,1000.);
#655=VECTOR('',#1122,1000.);
#656=VECTOR('',#1123,1000.);
#657=VECTOR('',#1126,1000.);
#658=VECTOR('',#1127,1000.);
#659=VECTOR('',#1128,1000.);
#660=VECTOR('',#1131,1000.);
#661=VECTOR('',#1132,1000.);
#662=VECTOR('',#1133,1000.);
#663=VECTOR('',#1136,1000.);
#664=VECTOR('',#1137,1000.);
#665=VECTOR('',#1138,1000.);
#666=VECTOR('',#1139,1000.);
#667=VECTOR('',#1140,1000.);
#668=VECTOR('',#1141,1000.);
#669=VECTOR('',#1144,1000.);
#670=VECTOR('',#1145,1000.);
#671=VECTOR('',#1146,1000.);
#672=VECTOR('',#1149,1000.);
#673=VECTOR('',#1150,1000.);
#674=VECTOR('',#1153,1000.);
#675=VECTOR('',#1154,1000.);
#676=VECTOR('',#1157,1000.);
#677=VECTOR('',#1158,1000.);
#678=VECTOR('',#1161,1000.);
#679=VECTOR('',#1162,1000.);
#680=VECTOR('',#1165,1000.);
#681=VECTOR('',#1168,1000.);
#682=VECTOR('',#1169,1000.);
#683=VECTOR('',#1170,1000.);
#684=VECTOR('',#1171,1000.);
#685=VECTOR('',#1172,1000.);
#686=VECTOR('',#1173,1000.);
#687=VECTOR('',#1174,1000.);
#688=VECTOR('',#1177,1000.);
#689=VECTOR('',#1178,1000.);
#690=VECTOR('',#1179,1000.);
#691=VECTOR('',#1180,1000.);
#692=VECTOR('',#1183,1000.);
#693=VECTOR('',#1184,1000.);
#694=VECTOR('',#1185,1000.);
#695=VECTOR('',#1186,1000.);
#696=VECTOR('',#1187,1000.);
#697=VECTOR('',#1188,1000.);
#698=VECTOR('',#1189,1000.);
#699=VECTOR('',#1190,1000.);
#700=VECTOR('',#1191,1000.);
#701=VECTOR('',#1192,1000.);
#702=VECTOR('',#1193,1000.);
#703=VECTOR('',#1194,1000.);
#704=VECTOR('',#1195,1000.);
#705=VECTOR('',#1196,1000.);
#706=VECTOR('',#1197,1000.);
#707=VECTOR('',#1198,1000.);
#708=VECTOR('',#1201,1000.);
#709=VECTOR('',#1202,1000.);
#710=VECTOR('',#1203,1000.);
#711=VECTOR('',#1204,1000.);
#712=VECTOR('',#1207,1000.);
#713=VECTOR('',#1208,1000.);
#714=VECTOR('',#1209,1000.);
#715=VECTOR('',#1212,1000.);
#716=VECTOR('',#1213,1000.);
#717=VECTOR('',#1214,1000.);
#718=VECTOR('',#1215,1000.);
#719=VECTOR('',#1218,1000.);
#720=VECTOR('',#1219,1000.);
#721=VECTOR('',#1220,1000.);
#722=VECTOR('',#1223,1000.);
#723=VECTOR('',#1224,1000.);
#724=VECTOR('',#1225,1000.);
#725=VECTOR('',#1228,1000.);
#726=VECTOR('',#1229,1000.);
#727=VECTOR('',#1232,1000.);
#728=VECTOR('',#1233,1000.);
#729=VECTOR('',#1234,1000.);
#730=VECTOR('',#1237,1000.);
#731=VECTOR('',#1238,1000.);
#732=VECTOR('',#1241,1000.);
#733=VECTOR('',#1242,1000.);
#734=VECTOR('',#1243,1000.);
#735=VECTOR('',#1244,1000.);
#736=VECTOR('',#1247,1000.);
#737=VECTOR('',#1248,1000.);
#738=VECTOR('',#1249,1000.);
#739=VECTOR('',#1252,1000.);
#740=VECTOR('',#1253,1000.);
#741=VECTOR('',#1254,1000.);
#742=VECTOR('',#1257,1000.);
#743=VECTOR('',#1258,1000.);
#744=VECTOR('',#1261,1000.);
#745=VECTOR('',#1262,1000.);
#746=VECTOR('',#1263,1000.);
#747=VECTOR('',#1264,1000.);
#748=VECTOR('',#1267,1000.);
#749=VECTOR('',#1268,1000.);
#750=VECTOR('',#1269,1000.);
#751=VECTOR('',#1270,1000.);
#752=VECTOR('',#1273,1000.);
#753=VECTOR('',#1274,1000.);
#754=VECTOR('',#1275,1000.);
#755=VECTOR('',#1276,1000.);
#756=VECTOR('',#1279,1000.);
#757=VECTOR('',#1280,1000.);
#758=VECTOR('',#1283,1000.);
#759=VECTOR('',#1286,1000.);
#760=VECTOR('',#1289,1000.);
#761=VECTOR('',#1292,1000.);
#762=VECTOR('',#1293,1000.);
#763=VECTOR('',#1296,1000.);
#764=VECTOR('',#1299,1000.);
#765=VECTOR('',#1304,1000.);
#766=VECTOR('',#1305,1000.);
#767=VECTOR('',#1308,1000.);
#768=VECTOR('',#1311,1000.);
#769=VECTOR('',#1316,1000.);
#770=VECTOR('',#1317,1000.);
#771=VECTOR('',#1320,1000.);
#772=VECTOR('',#1323,1000.);
#773=VECTOR('',#1328,1000.);
#774=VECTOR('',#1329,1000.);
#775=VECTOR('',#1332,1000.);
#776=VECTOR('',#1333,1000.);
#777=VECTOR('',#1336,1000.);
#778=VECTOR('',#1339,1000.);
#779=VECTOR('',#1344,1000.);
#780=VECTOR('',#1345,1000.);
#781=VECTOR('',#1348,1000.);
#782=VECTOR('',#1351,1000.);
#783=VECTOR('',#1354,1000.);
#784=VECTOR('',#1357,1000.);
#785=VECTOR('',#1360,1000.);
#786=VECTOR('',#1365,1000.);
#787=VECTOR('',#1366,1000.);
#788=VECTOR('',#1367,1000.);
#789=EDGE_LOOP('',(#12,#13,#14,#15));
#790=EDGE_LOOP('',(#16,#17,#18,#19));
#791=EDGE_LOOP('',(#20,#21,#22,#23));
#792=EDGE_LOOP('',(#24,#25,#26,#27));
#793=EDGE_LOOP('',(#28,#29,#30,#31,#32,#33));
#794=EDGE_LOOP('',(#34,#35,#36,#37));
#795=EDGE_LOOP('',(#38,#39,#40,#41));
#796=EDGE_LOOP('',(#42,#43,#44,#45));
#797=EDGE_LOOP('',(#46,#47,#48,#49));
#798=EDGE_LOOP('',(#50,#51,#52,#53));
#799=EDGE_LOOP('',(#54,#55,#56,#57));
#800=EDGE_LOOP('',(#58,#59,#60,#61,#62,#63,#64));
#801=EDGE_LOOP('',(#65,#66,#67,#68,#69,#70));
#802=EDGE_LOOP('',(#71,#72,#73,#74));
#803=EDGE_LOOP('',(#75,#76,#77,#78,#79,#80,#81));
#804=EDGE_LOOP('',(#82,#83,#84,#85,#86,#87,#88,#89,#90));
#805=EDGE_LOOP('',(#91,#92,#93,#94,#95));
#806=EDGE_LOOP('',(#96,#97,#98,#99));
#807=EDGE_LOOP('',(#100,#101,#102,#103));
#808=EDGE_LOOP('',(#104,#105,#106,#107));
#809=EDGE_LOOP('',(#108,#109,#110,#111,#112));
#810=EDGE_LOOP('',(#113,#114,#115,#116,#117));
#811=EDGE_LOOP('',(#118,#119,#120,#121,#122));
#812=EDGE_LOOP('',(#123,#124,#125,#126));
#813=EDGE_LOOP('',(#127,#128,#129,#130));
#814=EDGE_LOOP('',(#131,#132,#133,#134));
#815=EDGE_LOOP('',(#135,#136,#137,#138,#139));
#816=EDGE_LOOP('',(#140,#141,#142,#143,#144));
#817=EDGE_LOOP('',(#145,#146,#147,#148));
#818=EDGE_LOOP('',(#149,#150,#151,#152));
#819=EDGE_LOOP('',(#153,#154,#155,#156));
#820=EDGE_LOOP('',(#157,#158,#159,#160));
#821=EDGE_LOOP('',(#161,#162,#163,#164));
#822=EDGE_LOOP('',(#165,#166,#167,#168));
#823=EDGE_LOOP('',(#169,#170,#171,#172));
#824=EDGE_LOOP('',(#173,#174,#175,#176));
#825=EDGE_LOOP('',(#177,#178,#179,#180));
#826=EDGE_LOOP('',(#181,#182,#183,#184));
#827=EDGE_LOOP('',(#185,#186,#187,#188));
#828=EDGE_LOOP('',(#189,#190,#191,#192));
#829=EDGE_LOOP('',(#193,#194,#195,#196));
#830=EDGE_LOOP('',(#197,#198,#199,#200));
#831=EDGE_LOOP('',(#201,#202,#203,#204));
#832=EDGE_LOOP('',(#205,#206,#207,#208));
#833=EDGE_LOOP('',(#209,#210,#211,#212));
#834=EDGE_LOOP('',(#213,#214,#215,#216));
#835=EDGE_LOOP('',(#217,#218,#219,#220));
#836=EDGE_LOOP('',(#221,#222,#223,#224));
#837=EDGE_LOOP('',(#225,#226,#227,#228));
#838=EDGE_LOOP('',(#229,#230,#231,#232));
#839=EDGE_LOOP('',(#233,#234,#235,#236));
#840=EDGE_LOOP('',(#237,#238,#239,#240));
#841=EDGE_LOOP('',(#241,#242,#243,#244));
#842=EDGE_LOOP('',(#245,#246,#247,#248));
#843=EDGE_LOOP('',(#249,#250,#251,#252));
#844=EDGE_LOOP('',(#253,#254,#255,#256));
#845=EDGE_LOOP('',(#257,#258,#259,#260));
#846=EDGE_LOOP('',(#261,#262,#263,#264));
#847=EDGE_LOOP('',(#265,#266,#267,#268));
#848=EDGE_LOOP('',(#269,#270,#271,#272,#273,#274,#275,#276,#277));
#849=EDGE_LOOP('',(#278,#279,#280,#281));
#850=EDGE_LOOP('',(#282,#283,#284,#285));
#851=EDGE_LOOP('',(#286,#287,#288,#289));
#852=FACE_BOUND('',#789,.T.);
#853=FACE_BOUND('',#790,.T.);
#854=FACE_BOUND('',#791,.T.);
#855=FACE_BOUND('',#792,.T.);
#856=FACE_BOUND('',#793,.T.);
#857=FACE_BOUND('',#794,.T.);
#858=FACE_BOUND('',#795,.T.);
#859=FACE_BOUND('',#796,.T.);
#860=FACE_BOUND('',#797,.T.);
#861=FACE_BOUND('',#798,.T.);
#862=FACE_BOUND('',#799,.T.);
#863=FACE_BOUND('',#800,.T.);
#864=FACE_BOUND('',#801,.T.);
#865=FACE_BOUND('',#802,.T.);
#866=FACE_BOUND('',#803,.T.);
#867=FACE_BOUND('',#804,.T.);
#868=FACE_BOUND('',#805,.T.);
#869=FACE_BOUND('',#806,.T.);
#870=FACE_BOUND('',#807,.T.);
#871=FACE_BOUND('',#808,.T.);
#872=FACE_BOUND('',#809,.T.);
#873=FACE_BOUND('',#810,.T.);
#874=FACE_BOUND('',#811,.T.);
#875=FACE_BOUND('',#812,.T.);
#876=FACE_BOUND('',#813,.T.);
#877=FACE_BOUND('',#814,.T.);
#878=FACE_BOUND('',#815,.T.);
#879=FACE_BOUND('',#816,.T.);
#880=FACE_BOUND('',#817,.T.);
#881=FACE_BOUND('',#818,.T.);
#882=FACE_BOUND('',#819,.T.);
#883=FACE_BOUND('',#820,.T.);
#884=FACE_BOUND('',#821,.T.);
#885=FACE_BOUND('',#822,.T.);
#886=FACE_BOUND('',#823,.T.);
#887=FACE_BOUND('',#824,.T.);
#888=FACE_BOUND('',#825,.T.);
#889=FACE_BOUND('',#826,.T.);
#890=FACE_BOUND('',#827,.T.);
#891=FACE_BOUND('',#828,.T.);
#892=FACE_BOUND('',#829,.T.);
#893=FACE_BOUND('',#830,.T.);
#894=FACE_BOUND('',#831,.T.);
#895=FACE_BOUND('',#832,.T.);
#896=FACE_BOUND('',#833,.T.);
#897=FACE_BOUND('',#834,.T.);
#898=FACE_BOUND('',#835,.T.);
#899=FACE_BOUND('',#836,.T.);
#900=FACE_BOUND('',#837,.T.);
#901=FACE_BOUND('',#838,.T.);
#902=FACE_BOUND('',#839,.T.);
#903=FACE_BOUND('',#840,.T.);
#904=FACE_BOUND('',#841,.T.);
#905=FACE_BOUND('',#842,.T.);
#906=FACE_BOUND('',#843,.T.);
#907=FACE_BOUND('',#844,.T.);
#908=FACE_BOUND('',#845,.T.);
#909=FACE_BOUND('',#846,.T.);
#910=FACE_BOUND('',#847,.T.);
#911=FACE_BOUND('',#848,.T.);
#912=FACE_BOUND('',#849,.T.);
#913=FACE_BOUND('',#850,.T.);
#914=FACE_BOUND('',#851,.T.);
#915=PLANE('',#1050);
#916=PLANE('',#1051);
#917=PLANE('',#1052);
#918=PLANE('',#1053);
#919=PLANE('',#1054);
#920=PLANE('',#1055);
#921=PLANE('',#1056);
#922=PLANE('',#1057);
#923=PLANE('',#1058);
#924=PLANE('',#1059);
#925=PLANE('',#1060);
#926=PLANE('',#1061);
#927=PLANE('',#1062);
#928=PLANE('',#1063);
#929=PLANE('',#1064);
#930=PLANE('',#1065);
#931=PLANE('',#1066);
#932=PLANE('',#1067);
#933=PLANE('',#1068);
#934=PLANE('',#1069);
#935=PLANE('',#1070);
#936=PLANE('',#1071);
#937=PLANE('',#1072);
#938=PLANE('',#1073);
#939=PLANE('',#1074);
#940=PLANE('',#1075);
#941=PLANE('',#1076);
#942=PLANE('',#1077);
#943=PLANE('',#1078);
#944=PLANE('',#1079);
#945=PLANE('',#1080);
#946=PLANE('',#1081);
#947=PLANE('',#1082);
#948=PLANE('',#1083);
#949=PLANE('',#1084);
#950=PLANE('',#1085);
#951=PLANE('',#1086);
#952=PLANE('',#1087);
#953=PLANE('',#1088);
#954=PLANE('',#1089);
#955=PLANE('',#1090);
#956=PLANE('',#1091);
#957=PLANE('',#1092);
#958=PLANE('',#1093);
#959=PLANE('',#1094);
#960=PLANE('',#1095);
#961=PLANE('',#1096);
#962=PLANE('',#1097);
#963=PLANE('',#1098);
#964=PLANE('',#1099);
#965=PLANE('',#1100);
#966=PLANE('',#1101);
#967=PLANE('',#1102);
#968=PLANE('',#1103);
#969=PLANE('',#1104);
#970=PLANE('',#1105);
#971=PLANE('',#1106);
#972=PLANE('',#1107);
#973=PLANE('',#1108);
#974=PLANE('',#1109);
#975=PLANE('',#1110);
#976=ADVANCED_FACE('',(#852),#915,.T.);
#977=ADVANCED_FACE('',(#853),#916,.T.);
#978=ADVANCED_FACE('',(#854),#917,.T.);
#979=ADVANCED_FACE('',(#855),#918,.T.);
#980=ADVANCED_FACE('',(#856),#919,.T.);
#981=ADVANCED_FACE('',(#857),#920,.F.);
#982=ADVANCED_FACE('',(#858),#921,.F.);
#983=ADVANCED_FACE('',(#859),#922,.F.);
#984=ADVANCED_FACE('',(#860),#923,.F.);
#985=ADVANCED_FACE('',(#861),#924,.F.);
#986=ADVANCED_FACE('',(#862),#925,.F.);
#987=ADVANCED_FACE('',(#863,#864),#926,.F.);
#988=ADVANCED_FACE('',(#865),#927,.T.);
#989=ADVANCED_FACE('',(#866,#867),#928,.F.);
#990=ADVANCED_FACE('',(#868),#929,.T.);
#991=ADVANCED_FACE('',(#869),#930,.F.);
#992=ADVANCED_FACE('',(#870),#931,.F.);
#993=ADVANCED_FACE('',(#871),#932,.T.);
#994=ADVANCED_FACE('',(#872),#933,.T.);
#995=ADVANCED_FACE('',(#873),#934,.T.);
#996=ADVANCED_FACE('',(#874),#935,.T.);
#997=ADVANCED_FACE('',(#875),#936,.F.);
#998=ADVANCED_FACE('',(#876),#937,.F.);
#999=ADVANCED_FACE('',(#877),#938,.T.);
#1000=ADVANCED_FACE('',(#878),#939,.T.);
#1001=ADVANCED_FACE('',(#879),#940,.T.);
#1002=ADVANCED_FACE('',(#880),#941,.T.);
#1003=ADVANCED_FACE('',(#881),#942,.T.);
#1004=ADVANCED_FACE('',(#882),#943,.T.);
#1005=ADVANCED_FACE('',(#883),#944,.T.);
#1006=ADVANCED_FACE('',(#884),#945,.T.);
#1007=ADVANCED_FACE('',(#885),#946,.T.);
#1008=ADVANCED_FACE('',(#886),#947,.T.);
#1009=ADVANCED_FACE('',(#887),#948,.F.);
#1010=ADVANCED_FACE('',(#888),#949,.F.);
#1011=ADVANCED_FACE('',(#889),#950,.T.);
#1012=ADVANCED_FACE('',(#890),#951,.F.);
#1013=ADVANCED_FACE('',(#891),#952,.F.);
#1014=ADVANCED_FACE('',(#892),#953,.T.);
#1015=ADVANCED_FACE('',(#893),#954,.F.);
#1016=ADVANCED_FACE('',(#894),#955,.F.);
#1017=ADVANCED_FACE('',(#895),#956,.F.);
#1018=ADVANCED_FACE('',(#896),#957,.T.);
#1019=ADVANCED_FACE('',(#897),#958,.F.);
#1020=ADVANCED_FACE('',(#898),#959,.T.);
#1021=ADVANCED_FACE('',(#899),#960,.F.);
#1022=ADVANCED_FACE('',(#900),#961,.F.);
#1023=ADVANCED_FACE('',(#901),#962,.F.);
#1024=ADVANCED_FACE('',(#902),#963,.T.);
#1025=ADVANCED_FACE('',(#903),#964,.F.);
#1026=ADVANCED_FACE('',(#904),#965,.T.);
#1027=ADVANCED_FACE('',(#905),#966,.T.);
#1028=ADVANCED_FACE('',(#906),#967,.T.);
#1029=ADVANCED_FACE('',(#907),#968,.T.);
#1030=ADVANCED_FACE('',(#908),#969,.F.);
#1031=ADVANCED_FACE('',(#909),#970,.F.);
#1032=ADVANCED_FACE('',(#910),#971,.T.);
#1033=ADVANCED_FACE('',(#911),#972,.T.);
#1034=ADVANCED_FACE('',(#912),#973,.F.);
#1035=ADVANCED_FACE('',(#913),#974,.T.);
#1036=ADVANCED_FACE('',(#914),#975,.T.);
#1037=CLOSED_SHELL('',(#976,#977,#978,#979,#980,#981,#982,#983,#984,#985,
#986,#987,#988,#989,#990,#991,#992,#993,#994,#995,#996,#997,#998,#999,#1000,
#1001,#1002,#1003,#1004,#1005,#1006,#1007,#1008,#1009,#1010,#1011,#1012,
#1013,#1014,#1015,#1016,#1017,#1018,#1019,#1020,#1021,#1022,#1023,#1024,
#1025,#1026,#1027,#1028,#1029,#1030,#1031,#1032,#1033,#1034,#1035,#1036));
#1038=STYLED_ITEM('',(#1039),#1046);
#1039=PRESENTATION_STYLE_ASSIGNMENT((#1040));
#1040=SURFACE_STYLE_USAGE(.BOTH.,#1041);
#1041=SURFACE_SIDE_STYLE('',(#1042));
#1042=SURFACE_STYLE_FILL_AREA(#1043);
#1043=FILL_AREA_STYLE('',(#1044));
#1044=FILL_AREA_STYLE_COLOUR('',#1045);
#1045=DRAUGHTING_PRE_DEFINED_COLOUR('white');
#1046=MANIFOLD_SOLID_BREP('[t]_LED_diffuser',#1037);
#1047=SHAPE_DEFINITION_REPRESENTATION(#1663,#1048);
#1048=SHAPE_REPRESENTATION('[t]_LED_diffuser',(#1049),#1658);
#1049=AXIS2_PLACEMENT_3D('',#1374,#1111,#1112);
#1050=AXIS2_PLACEMENT_3D('',#1375,#1113,#1114);
#1051=AXIS2_PLACEMENT_3D('',#1384,#1119,#1120);
#1052=AXIS2_PLACEMENT_3D('',#1390,#1124,#1125);
#1053=AXIS2_PLACEMENT_3D('',#1396,#1129,#1130);
#1054=AXIS2_PLACEMENT_3D('',#1402,#1134,#1135);
#1055=AXIS2_PLACEMENT_3D('',#1415,#1142,#1143);
#1056=AXIS2_PLACEMENT_3D('',#1421,#1147,#1148);
#1057=AXIS2_PLACEMENT_3D('',#1425,#1151,#1152);
#1058=AXIS2_PLACEMENT_3D('',#1429,#1155,#1156);
#1059=AXIS2_PLACEMENT_3D('',#1433,#1159,#1160);
#1060=AXIS2_PLACEMENT_3D('',#1437,#1163,#1164);
#1061=AXIS2_PLACEMENT_3D('',#1439,#1166,#1167);
#1062=AXIS2_PLACEMENT_3D('',#1454,#1175,#1176);
#1063=AXIS2_PLACEMENT_3D('',#1463,#1181,#1182);
#1064=AXIS2_PLACEMENT_3D('',#1496,#1199,#1200);
#1065=AXIS2_PLACEMENT_3D('',#1504,#1205,#1206);
#1066=AXIS2_PLACEMENT_3D('',#1510,#1210,#1211);
#1067=AXIS2_PLACEMENT_3D('',#1519,#1216,#1217);
#1068=AXIS2_PLACEMENT_3D('',#1525,#1221,#1222);
#1069=AXIS2_PLACEMENT_3D('',#1530,#1226,#1227);
#1070=AXIS2_PLACEMENT_3D('',#1533,#1230,#1231);
#1071=AXIS2_PLACEMENT_3D('',#1539,#1235,#1236);
#1072=AXIS2_PLACEMENT_3D('',#1542,#1239,#1240);
#1073=AXIS2_PLACEMENT_3D('',#1551,#1245,#1246);
#1074=AXIS2_PLACEMENT_3D('',#1557,#1250,#1251);
#1075=AXIS2_PLACEMENT_3D('',#1562,#1255,#1256);
#1076=AXIS2_PLACEMENT_3D('',#1565,#1259,#1260);
#1077=AXIS2_PLACEMENT_3D('',#1574,#1265,#1266);
#1078=AXIS2_PLACEMENT_3D('',#1583,#1271,#1272);
#1079=AXIS2_PLACEMENT_3D('',#1592,#1277,#1278);
#1080=AXIS2_PLACEMENT_3D('',#1595,#1281,#1282);
#1081=AXIS2_PLACEMENT_3D('',#1597,#1284,#1285);
#1082=AXIS2_PLACEMENT_3D('',#1599,#1287,#1288);
#1083=AXIS2_PLACEMENT_3D('',#1601,#1290,#1291);
#1084=AXIS2_PLACEMENT_3D('',#1604,#1294,#1295);
#1085=AXIS2_PLACEMENT_3D('',#1606,#1297,#1298);
#1086=AXIS2_PLACEMENT_3D('',#1608,#1300,#1301);
#1087=AXIS2_PLACEMENT_3D('',#1609,#1302,#1303);
#1088=AXIS2_PLACEMENT_3D('',#1612,#1306,#1307);
#1089=AXIS2_PLACEMENT_3D('',#1614,#1309,#1310);
#1090=AXIS2_PLACEMENT_3D('',#1616,#1312,#1313);
#1091=AXIS2_PLACEMENT_3D('',#1617,#1314,#1315);
#1092=AXIS2_PLACEMENT_3D('',#1620,#1318,#1319);
#1093=AXIS2_PLACEMENT_3D('',#1622,#1321,#1322);
#1094=AXIS2_PLACEMENT_3D('',#1624,#1324,#1325);
#1095=AXIS2_PLACEMENT_3D('',#1625,#1326,#1327);
#1096=AXIS2_PLACEMENT_3D('',#1628,#1330,#1331);
#1097=AXIS2_PLACEMENT_3D('',#1631,#1334,#1335);
#1098=AXIS2_PLACEMENT_3D('',#1633,#1337,#1338);
#1099=AXIS2_PLACEMENT_3D('',#1635,#1340,#1341);
#1100=AXIS2_PLACEMENT_3D('',#1636,#1342,#1343);
#1101=AXIS2_PLACEMENT_3D('',#1639,#1346,#1347);
#1102=AXIS2_PLACEMENT_3D('',#1641,#1349,#1350);
#1103=AXIS2_PLACEMENT_3D('',#1643,#1352,#1353);
#1104=AXIS2_PLACEMENT_3D('',#1645,#1355,#1356);
#1105=AXIS2_PLACEMENT_3D('',#1647,#1358,#1359);
#1106=AXIS2_PLACEMENT_3D('',#1649,#1361,#1362);
#1107=AXIS2_PLACEMENT_3D('',#1650,#1363,#1364);
#1108=AXIS2_PLACEMENT_3D('',#1654,#1368,#1369);
#1109=AXIS2_PLACEMENT_3D('',#1655,#1370,#1371);
#1110=AXIS2_PLACEMENT_3D('',#1656,#1372,#1373);
#1111=DIRECTION('',(0.,0.,1.));
#1112=DIRECTION('',(1.,0.,0.));
#1113=DIRECTION('',(0.999999999959232,9.02971235875753E-6,5.16047668683613E-18));
#1114=DIRECTION('',(9.02971235875753E-6,-0.999999999959232,0.));
#1115=DIRECTION('',(-6.13923110876785E-26,5.71499572020068E-13,-1.));
#1116=DIRECTION('',(-9.02971235875753E-6,0.999999999959232,0.));
#1117=DIRECTION('',(6.13923110876785E-26,-5.71499572020068E-13,1.));
#1118=DIRECTION('',(9.02971235875753E-6,-0.999999999959232,-5.71499571996769E-13));
#1119=DIRECTION('',(0.499992180019325,0.866029918605312,4.94935727839479E-13));
#1120=DIRECTION('',(0.866029918605312,-0.499992180019325,0.));
#1121=DIRECTION('',(-0.866029918605312,0.499992180019325,0.));
#1122=DIRECTION('',(6.13923110876785E-26,-5.71499572020068E-13,1.));
#1123=DIRECTION('',(0.866029918605312,-0.499992180019325,-2.85745316894478E-13));
#1124=DIRECTION('',(-0.500007819939908,0.866020888892953,4.94930567362793E-13));
#1125=DIRECTION('',(0.866020888892953,0.500007819939908,0.));
#1126=DIRECTION('',(-0.866020888892953,-0.500007819939908,0.));
#1127=DIRECTION('',(6.13923110876785E-26,-5.71499572020068E-13,1.));
#1128=DIRECTION('',(0.866020888892953,0.500007819939908,2.85754255102291E-13));
#1129=DIRECTION('',(-0.999999999959232,-9.02971235875753E-6,-5.16047668683613E-18));
#1130=DIRECTION('',(-9.02971235875753E-6,0.999999999959232,0.));
#1131=DIRECTION('',(9.02971235875753E-6,-0.999999999959232,0.));
#1132=DIRECTION('',(6.13923110876785E-26,-5.71499572020068E-13,1.));
#1133=DIRECTION('',(-9.02971235875753E-6,0.999999999959232,5.71499571996769E-13));
#1134=DIRECTION('',(1.11657906088251E-36,0.,-1.));
#1135=DIRECTION('',(-1.,-1.20004111342768E-24,2.41493018262266E-37));
#1136=DIRECTION('',(0.866029918605308,-0.499992180019331,5.04870979341448E-29));
#1137=DIRECTION('',(9.02971235244783E-6,-0.999999999959232,0.));
#1138=DIRECTION('',(-0.866020888892956,-0.500007819939902,1.51461293802434E-28));
#1139=DIRECTION('',(-0.866029918605309,0.49999218001933,5.04870979341448E-29));
#1140=DIRECTION('',(-9.02971235257303E-6,0.999999999959232,0.));
#1141=DIRECTION('',(0.866020888892956,0.500007819939903,2.01948391736579E-28));
#1142=DIRECTION('',(-0.353558920125807,0.612369243185411,0.707106781186547));
#1143=DIRECTION('',(0.866020888892957,0.500007819939902,5.04870979341448E-29));
#1144=DIRECTION('',(6.82582094097466E-6,-0.755928945987637,0.654653670707977));
#1145=DIRECTION('',(0.65465708359176,-0.377958561659481,0.654653670707977));
#1146=DIRECTION('',(0.866020888892956,0.500007819939902,-1.51461293802434E-28));
#1147=DIRECTION('',(0.353547861031913,0.612375628156248,0.707106781186548));
#1148=DIRECTION('',(0.866029918605309,-0.49999218001933,-5.04870979341448E-29));
#1149=DIRECTION('',(0.866029918605309,-0.49999218001933,-5.04870979341448E-29));
#1150=DIRECTION('',(0.654650257770818,0.377970384328155,-0.654653670707977));
#1151=DIRECTION('',(0.70710678115772,6.38497083666832E-6,0.707106781186548));
#1152=DIRECTION('',(9.02971235257302E-6,-0.999999999959232,0.));
#1153=DIRECTION('',(9.02971235257303E-6,-0.999999999959232,0.));
#1154=DIRECTION('',(0.65465708359176,-0.377958561659477,-0.654653670707978));
#1155=DIRECTION('',(0.353558920125808,-0.612369243185412,0.707106781186546));
#1156=DIRECTION('',(-0.866020888892956,-0.500007819939903,-2.01948391736579E-28));
#1157=DIRECTION('',(-0.866020888892956,-0.500007819939903,-2.01948391736579E-28));
#1158=DIRECTION('',(6.82582093991328E-6,-0.755928945987636,-0.654653670707978));
#1159=DIRECTION('',(-0.353547861031914,-0.612375628156248,0.707106781186547));
#1160=DIRECTION('',(-0.866029918605309,0.49999218001933,5.04870979341448E-29));
#1161=DIRECTION('',(-0.866029918605308,0.499992180019331,-5.04870979341448E-29));
#1162=DIRECTION('',(0.654650257770818,0.377970384328153,0.654653670707977));
#1163=DIRECTION('',(-0.70710678115772,-6.38497083657979E-6,0.707106781186548));
#1164=DIRECTION('',(-9.02971235244783E-6,0.999999999959232,0.));
#1165=DIRECTION('',(-9.02971235244783E-6,0.999999999959232,0.));
#1166=DIRECTION('',(-1.11657906088251E-36,0.,1.));
#1167=DIRECTION('',(-1.20004111342768E-24,1.,0.));
#1168=DIRECTION('',(-0.707100396186879,-0.707113166128562,-2.01948391736579E-28));
#1169=DIRECTION('',(-1.,-1.20004111342768E-24,2.41493018262266E-37));
#1170=DIRECTION('',(-0.707113166128562,0.707100396186879,0.));
#1171=DIRECTION('',(-9.02971235875753E-6,0.999999999959232,0.));
#1172=DIRECTION('',(0.866020888892953,0.500007819939908,0.));
#1173=DIRECTION('',(0.866029918605312,-0.499992180019325,0.));
#1174=DIRECTION('',(9.02971235875753E-6,-0.999999999959232,0.));
#1175=DIRECTION('',(1.20004111342768E-24,-1.,-5.71499572020068E-13));
#1176=DIRECTION('',(2.41493018262266E-37,5.71499572020068E-13,-1.));
#1177=DIRECTION('',(-6.13923110876785E-26,5.71499572020068E-13,-1.));
#1178=DIRECTION('',(1.,1.20004111342768E-24,-2.41493018262266E-37));
#1179=DIRECTION('',(6.13923110876785E-26,-5.71499572020068E-13,1.));
#1180=DIRECTION('',(-1.,-1.20004111342772E-24,6.13923110881615E-26));
#1181=DIRECTION('',(-6.13923110876785E-26,5.71499572020068E-13,-1.));
#1182=DIRECTION('',(-1.,-1.20004111342772E-24,6.13923110881615E-26));
#1183=DIRECTION('',(1.,1.20004111342772E-24,-6.13923110881615E-26));
#1184=DIRECTION('',(0.707100396186879,0.707113166128562,4.04114871812185E-13));
#1185=DIRECTION('',(-9.02971235875753E-6,0.999999999959232,5.71499571996769E-13));
#1186=DIRECTION('',(-0.866029918605312,0.499992180019325,2.85745316894478E-13));
#1187=DIRECTION('',(-0.866020888892953,-0.500007819939908,-2.85754255102291E-13));
#1188=DIRECTION('',(9.02971235875753E-6,-0.999999999959232,-5.71499571996769E-13));
#1189=DIRECTION('',(0.707113166128562,-0.707100396186879,-4.04107573796066E-13));
#1190=DIRECTION('',(0.866020888892953,-0.500007819939908,-2.85754255102398E-13));
#1191=DIRECTION('',(0.499992180019316,-0.866029918605317,-4.94935727839544E-13));
#1192=DIRECTION('',(-9.02971235845704E-6,-0.999999999959232,-5.71499571996769E-13));
#1193=DIRECTION('',(-0.866029918605312,-0.499992180019325,-2.85745316894371E-13));
#1194=DIRECTION('',(-1.,-1.20004111342772E-24,6.13923110881615E-26));
#1195=DIRECTION('',(0.866029918605312,-0.499992180019325,-2.85745316894478E-13));
#1196=DIRECTION('',(9.02971235845704E-6,-0.999999999959232,-5.71499571996769E-13));
#1197=DIRECTION('',(-0.499992180019323,-0.866029918605313,-4.9493572783948E-13));
#1198=DIRECTION('',(-0.866020888892953,-0.500007819939908,-2.85754255102291E-13));
#1199=DIRECTION('',(-0.500007819939908,0.866020888892953,4.94930567362793E-13));
#1200=DIRECTION('',(0.866020888892953,0.500007819939908,0.));
#1201=DIRECTION('',(6.13923110876785E-26,-5.71499572020069E-13,1.));
#1202=DIRECTION('',(6.13923110876785E-26,-5.71499572020069E-13,1.));
#1203=DIRECTION('',(0.866020888892953,0.500007819939908,2.85754255102291E-13));
#1204=DIRECTION('',(2.41493018262211E-37,5.71499572020104E-13,-1.));
#1205=DIRECTION('',(0.499992180019324,0.866029918605312,4.9493572783948E-13));
#1206=DIRECTION('',(0.866029918605312,-0.499992180019324,-1.00974195868289E-28));
#1207=DIRECTION('',(0.866029918605312,-0.499992180019324,-2.85745316894478E-13));
#1208=DIRECTION('',(2.4149301826232E-37,5.71499572020033E-13,-1.));
#1209=DIRECTION('',(-0.866029918605312,0.499992180019324,2.85745316894478E-13));
#1210=DIRECTION('',(-0.999999999959232,-9.02971235849463E-6,-5.16047668704832E-18));
#1211=DIRECTION('',(-9.02971235849463E-6,0.999999999959232,0.));
#1212=DIRECTION('',(6.13923110876785E-26,-5.71499572020068E-13,1.));
#1213=DIRECTION('',(-9.02971235849463E-6,0.999999999959232,5.71499571996769E-13));
#1214=DIRECTION('',(6.13923110876785E-26,-5.71499572020068E-13,1.));
#1215=DIRECTION('',(9.02971235849463E-6,-0.999999999959232,-5.71499571996769E-13));
#1216=DIRECTION('',(0.499992180019324,0.866029918605312,4.9493572783948E-13));
#1217=DIRECTION('',(0.866029918605312,-0.499992180019324,-1.00974195868289E-28));
#1218=DIRECTION('',(0.866029918605312,-0.499992180019324,-2.85745316894478E-13));
#1219=DIRECTION('',(6.13923110876785E-26,-5.71499572020069E-13,1.));
#1220=DIRECTION('',(0.866029918605312,-0.499992180019324,-2.85745316894478E-13));
#1221=DIRECTION('',(-0.999999999959232,-9.02971235845704E-6,-5.16047668702091E-18));
#1222=DIRECTION('',(-9.02971235845704E-6,0.999999999959232,0.));
#1223=DIRECTION('',(6.13923110876785E-26,-5.71499572020068E-13,1.));
#1224=DIRECTION('',(-9.02971235845704E-6,0.999999999959232,5.71499571996769E-13));
#1225=DIRECTION('',(6.13923110876785E-26,-5.71499572020069E-13,1.));
#1226=DIRECTION('',(-0.499992180019325,-0.866029918605312,-4.94935727839479E-13));
#1227=DIRECTION('',(-0.866029918605312,0.499992180019325,0.));
#1228=DIRECTION('',(6.13923110876785E-26,-5.71499572020068E-13,1.));
#1229=DIRECTION('',(-0.866029918605312,0.499992180019325,2.85745316894478E-13));
#1230=DIRECTION('',(0.500007819939908,0.866020888892953,4.94930567362793E-13));
#1231=DIRECTION('',(-0.866020888892953,0.500007819939908,0.));
#1232=DIRECTION('',(-6.13923110881615E-26,-5.71499572020069E-13,1.));
#1233=DIRECTION('',(-6.13923110881615E-26,-5.71499572020069E-13,1.));
#1234=DIRECTION('',(0.866020888892953,-0.500007819939908,-2.85754255102398E-13));
#1235=DIRECTION('',(-0.499992180019324,0.866029918605312,4.9493572783948E-13));
#1236=DIRECTION('',(-0.866029918605312,-0.499992180019324,-1.00974195868289E-28));
#1237=DIRECTION('',(0.866029918605312,0.499992180019324,2.85745316894371E-13));
#1238=DIRECTION('',(-0.866029918605312,-0.499992180019324,-2.85745316894371E-13));
#1239=DIRECTION('',(0.999999999959232,-9.02971235849463E-6,-5.16047668704832E-18));
#1240=DIRECTION('',(9.02971235849463E-6,0.999999999959232,0.));
#1241=DIRECTION('',(-6.13923110881615E-26,-5.71499572020068E-13,1.));
#1242=DIRECTION('',(-9.02971235849463E-6,-0.999999999959232,-5.71499571996769E-13));
#1243=DIRECTION('',(-6.13923110881615E-26,-5.71499572020068E-13,1.));
#1244=DIRECTION('',(9.02971235849463E-6,0.999999999959232,5.71499571996769E-13));
#1245=DIRECTION('',(-0.499992180019324,0.866029918605312,4.9493572783948E-13));
#1246=DIRECTION('',(-0.866029918605312,-0.499992180019324,-1.00974195868289E-28));
#1247=DIRECTION('',(0.866029918605312,0.499992180019324,2.85745316894371E-13));
#1248=DIRECTION('',(0.866029918605312,0.499992180019324,2.85745316894371E-13));
#1249=DIRECTION('',(-6.13923110881615E-26,-5.71499572020069E-13,1.));
#1250=DIRECTION('',(0.999999999959232,-9.02971235845704E-6,-5.16047668702091E-18));
#1251=DIRECTION('',(9.02971235845704E-6,0.999999999959232,0.));
#1252=DIRECTION('',(-9.02971235845704E-6,-0.999999999959232,-5.71499571996769E-13));
#1253=DIRECTION('',(-6.13923110881615E-26,-5.71499572020068E-13,1.));
#1254=DIRECTION('',(-6.13923110881615E-26,-5.71499572020069E-13,1.));
#1255=DIRECTION('',(0.499992180019325,-0.866029918605312,-4.94935727839479E-13));
#1256=DIRECTION('',(0.866029918605312,0.499992180019325,0.));
#1257=DIRECTION('',(-6.13923110881615E-26,-5.71499572020068E-13,1.));
#1258=DIRECTION('',(-0.866029918605312,-0.499992180019325,-2.85745316894371E-13));
#1259=DIRECTION('',(6.13923110876785E-26,-5.71499572020068E-13,1.));
#1260=DIRECTION('',(1.,1.20004111342772E-24,-6.13923110881615E-26));
#1261=DIRECTION('',(0.866029918605312,-0.499992180019324,-2.85745316894478E-13));
#1262=DIRECTION('',(0.866029918605312,0.499992180019324,2.85745316894371E-13));
#1263=DIRECTION('',(-0.866020888892953,0.500007819939908,2.85754255102398E-13));
#1264=DIRECTION('',(-0.866020888892953,-0.500007819939908,-2.85754255102291E-13));
#1265=DIRECTION('',(6.13923110876785E-26,-5.71499572020068E-13,1.));
#1266=DIRECTION('',(1.,1.20004111342772E-24,-6.13923110881615E-26));
#1267=DIRECTION('',(-9.02971235849463E-6,0.999999999959232,5.71499571996769E-13));
#1268=DIRECTION('',(-0.866029918605312,0.499992180019324,2.85745316894478E-13));
#1269=DIRECTION('',(9.02971235845704E-6,-0.999999999959232,-5.71499571996769E-13));
#1270=DIRECTION('',(0.866029918605312,-0.499992180019325,-2.85745316894478E-13));
#1271=DIRECTION('',(6.13923110876785E-26,-5.71499572020068E-13,1.));
#1272=DIRECTION('',(1.,1.20004111342772E-24,-6.13923110881615E-26));
#1273=DIRECTION('',(9.02971235845704E-6,0.999999999959232,5.71499571996769E-13));
#1274=DIRECTION('',(-0.866029918605312,-0.499992180019324,-2.85745316894371E-13));
#1275=DIRECTION('',(-9.02971235849463E-6,-0.999999999959232,-5.71499571996769E-13));
#1276=DIRECTION('',(0.866029918605312,0.499992180019325,2.85745316894371E-13));
#1277=DIRECTION('',(-0.353558920125811,0.612369243185006,0.707106781186896));
#1278=DIRECTION('',(0.866020888892953,0.500007819939908,2.85754255102291E-13));
#1279=DIRECTION('',(0.654657083591763,-0.377958561659849,0.654653670707762));
#1280=DIRECTION('',(6.82582094329487E-6,-0.755928945988011,0.654653670707546));
#1281=DIRECTION('',(0.35354786103191,0.612375628155846,0.707106781186898));
#1282=DIRECTION('',(0.866029918605312,-0.499992180019325,-2.85745316894478E-13));
#1283=DIRECTION('',(-0.654650257770816,-0.377970384328533,0.654653670707761));
#1284=DIRECTION('',(-0.70710678115772,-6.38497124515264E-6,0.707106781186548));
#1285=DIRECTION('',(-9.02971235875753E-6,0.999999999959232,5.71499571996769E-13));
#1286=DIRECTION('',(-0.678595806404756,-0.281090765250832,-0.678598344546007));
#1287=DIRECTION('',(0.70710678115772,6.3849704369302E-6,0.707106781186548));
#1288=DIRECTION('',(9.02971235875753E-6,-0.999999999959232,-5.71499571996769E-13));
#1289=DIRECTION('',(-0.67860088263161,0.281078510155111,0.678598344546008));
#1290=DIRECTION('',(-0.353547861031925,0.61237562815668,-0.707106781186167));
#1291=DIRECTION('',(0.866029918605312,0.499992180019325,2.85745316894371E-13));
#1292=DIRECTION('',(0.447220589866844,0.774592630999504,0.447213595500425));
#1293=DIRECTION('',(0.654650257770792,-0.37797038432777,-0.654653670708225));
#1294=DIRECTION('',(-0.70710678115775,6.38497124494044E-6,-0.707106781186518));
#1295=DIRECTION('',(-9.02971235845704E-6,-0.999999999959232,-5.71499571996769E-13));
#1296=DIRECTION('',(-0.44722058986683,-0.774592631000023,0.44721359549954));
#1297=DIRECTION('',(-0.707106781157739,6.38497043674448E-6,0.707106781186529));
#1298=DIRECTION('',(9.02971235849463E-6,0.999999999959232,5.71499571996769E-13));
#1299=DIRECTION('',(0.6546502577708,-0.377970384328525,0.654653670707781));
#1300=DIRECTION('',(0.353547861031919,-0.612375628155862,-0.707106781186878));
#1301=DIRECTION('',(-0.866029918605312,-0.499992180019324,-2.85745316894371E-13));
#1302=DIRECTION('',(0.353547861031912,0.612375628156659,-0.707106781186192));
#1303=DIRECTION('',(-0.866029918605312,0.499992180019325,2.85745316894478E-13));
#1304=DIRECTION('',(0.654650257770811,0.377970384327782,0.654653670708199));
#1305=DIRECTION('',(0.44722058986685,-0.774592630999515,-0.447213595500401));
#1306=DIRECTION('',(0.707106781157715,6.38497043674425E-6,0.707106781186553));
#1307=DIRECTION('',(9.02971235849463E-6,-0.999999999959232,-5.71499571996769E-13));
#1308=DIRECTION('',(0.65465025777082,0.377970384328536,-0.654653670707755));
#1309=DIRECTION('',(0.707106781157725,6.38497124494021E-6,-0.707106781186542));
#1310=DIRECTION('',(9.02971235845704E-6,-0.999999999959232,-5.71499571996769E-13));
#1311=DIRECTION('',(-0.447220589866836,0.774592631000034,-0.447213595499516));
#1312=DIRECTION('',(-0.353547861031906,-0.612375628155841,-0.707106781186903));
#1313=DIRECTION('',(-0.866029918605312,0.499992180019324,2.85745316894478E-13));
#1314=DIRECTION('',(0.353558920125811,-0.612369243185004,-0.707106781186898));
#1315=DIRECTION('',(0.866020888892953,0.500007819939908,2.85754255102291E-13));
#1316=DIRECTION('',(-9.07274732221636E-25,0.755930634985964,-0.654651720451202));
#1317=DIRECTION('',(0.894427190963458,8.07642002175713E-6,0.447213595499946));
#1318=DIRECTION('',(-0.353547861031898,-0.612375628156634,0.707106781186221));
#1319=DIRECTION('',(-0.866029918605312,0.499992180019324,2.85745316894478E-13));
#1320=DIRECTION('',(-9.07269559938469E-25,0.755927257079898,0.654655620921154));
#1321=DIRECTION('',(-0.353558920125811,-0.612369243185004,-0.707106781186898));
#1322=DIRECTION('',(-0.866020888892953,0.500007819939908,2.85754255102398E-13));
#1323=DIRECTION('',(-0.894427190963458,8.07642002177112E-6,0.447213595499946));
#1324=DIRECTION('',(0.353547861031898,-0.612375628156634,0.707106781186221));
#1325=DIRECTION('',(-0.866029918605312,-0.499992180019324,-2.85745316894371E-13));
#1326=DIRECTION('',(0.707100396186879,0.707113166128562,4.04114871812185E-13));
#1327=DIRECTION('',(6.13923110876785E-26,-5.71499572020068E-13,1.));
#1328=DIRECTION('',(-0.707113166128562,0.707100396186879,0.));
#1329=DIRECTION('',(0.707113166128562,-0.707100396186879,-4.04107573796065E-13));
#1330=DIRECTION('',(-0.707113166128562,0.707100396186879,4.04107573796065E-13));
#1331=DIRECTION('',(-6.13923110876785E-26,5.71499572020068E-13,-1.));
#1332=DIRECTION('',(-0.707100396186879,-0.707113166128562,-2.01948391736579E-28));
#1333=DIRECTION('',(0.707100396186879,0.707113166128562,4.04114871812185E-13));
#1334=DIRECTION('',(0.499995485123436,0.5000045148362,-0.707106781186262));
#1335=DIRECTION('',(0.707113166128562,-0.707100396186879,-4.04107573796066E-13));
#1336=DIRECTION('',(-0.281081331877664,-0.67859902920238,-0.678599029203157));
#1337=DIRECTION('',(8.92089918978881E-25,-0.707106781186952,0.707106781186143));
#1338=DIRECTION('',(-1.,-1.20004111342772E-24,6.13923110881615E-26));
#1339=DIRECTION('',(0.281087943554336,-0.678597659879306,-0.678597659880083));
#1340=DIRECTION('',(-0.500004514835797,0.499995485123841,-0.707106781186261));
#1341=DIRECTION('',(0.707100396186879,0.707113166128562,4.04114871812185E-13));
#1342=DIRECTION('',(-0.3535589201259,0.612369243185562,-0.707106781186371));
#1343=DIRECTION('',(0.866020888892953,0.500007819939908,0.));
#1344=DIRECTION('',(-0.654657083591852,0.377958561659157,0.654653670708071));
#1345=DIRECTION('',(-6.82582096886081E-6,0.75592894598747,0.65465367070817));
#1346=DIRECTION('',(0.353547861032004,0.612375628156413,-0.707106781186359));
#1347=DIRECTION('',(0.866029918605312,-0.499992180019325,0.));
#1348=DIRECTION('',(0.654650257770913,0.377970384327815,0.654653670708078));
#1349=DIRECTION('',(-0.707106781157722,-6.38497084104144E-6,-0.707106781186546));
#1350=DIRECTION('',(-9.02971235875753E-6,0.999999999959232,0.));
#1351=DIRECTION('',(0.678595806404681,0.281090765251569,-0.678598344545777));
#1352=DIRECTION('',(0.707106781157722,6.38497084104144E-6,-0.707106781186546));
#1353=DIRECTION('',(9.02971235875753E-6,-0.999999999959232,0.));
#1354=DIRECTION('',(-0.678600882631541,0.281078510155827,-0.678598344545781));
#1355=DIRECTION('',(0.499995485123339,0.500004514835698,0.707106781186686));
#1356=DIRECTION('',(-0.707113166128562,0.707100396186879,0.));
#1357=DIRECTION('',(0.281081331877582,0.678599029202976,-0.678599029202594));
#1358=DIRECTION('',(-0.500004514835705,0.499995485123345,0.707106781186676));
#1359=DIRECTION('',(-0.707100396186879,-0.707113166128562,-2.01948391736579E-28));
#1360=DIRECTION('',(0.281087943554233,-0.678597659879907,0.678597659879524));
#1361=DIRECTION('',(8.4867101475617E-25,-0.707106781186348,-0.707106781186747));
#1362=DIRECTION('',(-1.,-1.20004111342768E-24,2.41493018262266E-37));
#1363=DIRECTION('',(6.13923110876785E-26,-5.71499572020068E-13,1.));
#1364=DIRECTION('',(1.,1.20004111342772E-24,-6.13923110881615E-26));
#1365=DIRECTION('',(-1.,-1.20004111342772E-24,6.13923110881615E-26));
#1366=DIRECTION('',(0.499992180019316,-0.866029918605317,-4.94935727839544E-13));
#1367=DIRECTION('',(-0.499992180019323,-0.866029918605313,-4.9493572783948E-13));
#1368=DIRECTION('',(0.866029918605313,-0.499992180019323,-2.85745316894477E-13));
#1369=DIRECTION('',(-0.499992180019323,-0.866029918605313,-1.00974195868289E-28));
#1370=DIRECTION('',(1.20004111342768E-24,-1.,-5.71499572020068E-13));
#1371=DIRECTION('',(2.41493018262266E-37,5.71499572020068E-13,-1.));
#1372=DIRECTION('',(0.866029918605317,0.499992180019316,2.85745316894366E-13));
#1373=DIRECTION('',(0.499992180019316,-0.866029918605317,0.));
#1374=CARTESIAN_POINT('',(0.,0.,0.));
#1375=CARTESIAN_POINT('',(4.9999794681904,13.9900604364439,-0.00200000004123984));
#1376=CARTESIAN_POINT('',(5.00002252888329,9.22128252009882,-0.00200000004396683));
#1377=CARTESIAN_POINT('',(5.0000225288833,9.22128252009813,1.19999999999663));
#1378=CARTESIAN_POINT('',(5.00002252888329,9.22128252009859,0.399999999999852));
#1379=CARTESIAN_POINT('',(4.9999534016561,16.8768117822743,0.400000000000019));
#1380=CARTESIAN_POINT('',(4.9999534016561,16.876811782274,0.400000000000019));
#1381=CARTESIAN_POINT('',(4.9999534016561,16.8768117822743,-0.00200000003958839));
#1382=CARTESIAN_POINT('',(4.9999534016561,16.8768117822736,1.200000000001));
#1383=CARTESIAN_POINT('',(5.00000553472471,11.1033090906122,1.19999999999771));
#1384=CARTESIAN_POINT('',(2.49994036849087,18.3201648809086,-0.00200000003874184));
#1385=CARTESIAN_POINT('',(-7.26646744631795E-5,19.7635179795427,0.400000000000213));
#1386=CARTESIAN_POINT('',(-7.26646743679052E-5,19.7635179795427,0.400000000000213));
#1387=CARTESIAN_POINT('',(-7.26646743679052E-5,19.7635179795429,-0.00200000003793693));
#1388=CARTESIAN_POINT('',(-7.26646743668901E-5,19.7635179795422,1.20000000000267));
#1389=CARTESIAN_POINT('',(4.9999534016561,16.8768117822736,1.20000000000101));
#1390=CARTESIAN_POINT('',(-2.5000596313053,18.3201197323468,-0.00200000003874879));
#1391=CARTESIAN_POINT('',(-5.00004659793595,16.8767214851506,0.400000000000213));
#1392=CARTESIAN_POINT('',(-5.00004659793623,16.8767214851504,0.400000000000213));
#1393=CARTESIAN_POINT('',(-5.00004659793623,16.8767214851507,-0.00200000003958839));
#1394=CARTESIAN_POINT('',(-5.00004659793622,16.87672148515,1.20000000000101));
#1395=CARTESIAN_POINT('',(-7.26646743660919E-5,19.7635179795422,1.20000000000266));
#1396=CARTESIAN_POINT('',(-5.00002053140192,13.9899701393202,-0.00200000004123984));
#1397=CARTESIAN_POINT('',(-4.99997747152439,9.22128252009881,0.400000000000019));
#1398=CARTESIAN_POINT('',(-4.99997747152439,9.22128252009859,0.400000000000019));
#1399=CARTESIAN_POINT('',(-4.99997747152439,9.22128252009882,-0.00200000004396683));
#1400=CARTESIAN_POINT('',(-4.99997747152439,9.22128252009814,1.19999999999663));
#1401=CARTESIAN_POINT('',(-5.00004659793623,16.87672148515,1.20000000000101));
#1402=CARTESIAN_POINT('',(-2.05316057580033E-5,14.2536201421746,2.2));
#1403=CARTESIAN_POINT('',(-0.396460940602828,13.3033460381301,2.2));
#1404=CARTESIAN_POINT('',(-1.22644144530671E-5,13.074461061278,2.2));
#1405=CARTESIAN_POINT('',(-0.79290961679123,13.5322310149822,2.2));
#1406=CARTESIAN_POINT('',(-0.792913750386885,13.9900081282841,2.2));
#1407=CARTESIAN_POINT('',(-0.79291788398254,14.447785241586,2.2));
#1408=CARTESIAN_POINT('',(-0.396473341389808,14.6766773780358,2.2));
#1409=CARTESIAN_POINT('',(-2.8798797054508E-5,14.9055695144857,2.2));
#1410=CARTESIAN_POINT('',(0.396419877391318,14.6766845376335,2.2));
#1411=CARTESIAN_POINT('',(0.792868553579714,14.4477995607814,2.2));
#1412=CARTESIAN_POINT('',(0.792872687175368,13.9900224474795,2.2));
#1413=CARTESIAN_POINT('',(0.792876820771023,13.5322453341776,2.2));
#1414=CARTESIAN_POINT('',(0.396432278178296,13.3033531977278,2.2));
#1415=CARTESIAN_POINT('',(-0.573252801452712,14.9828619996285,1.84644660940675));
#1416=CARTESIAN_POINT('',(-3.07775108370124E-5,15.1247031596399,2.01022469646484));
#1417=CARTESIAN_POINT('',(-5.17373472260582E-5,17.4459106988165,6.93889390390723E-15));
#1418=CARTESIAN_POINT('',(-0.982694176866865,14.5573503505467,2.01022469646485));
#1419=CARTESIAN_POINT('',(-2.99292935316794,15.7179359683842,1.38777878078145E-14));
#1420=CARTESIAN_POINT('',(-1.49649054525759,16.5819233336004,1.38777878078145E-14));
#1421=CARTESIAN_POINT('',(0.573193807907274,14.9828723517117,1.84644660940674));
#1422=CARTESIAN_POINT('',(1.49640267343384,16.5819503585652,1.38777878078145E-14));
#1423=CARTESIAN_POINT('',(2.99285708421494,15.717990018314,1.38777878078145E-14));
#1424=CARTESIAN_POINT('',(0.982642867750253,14.5573680969749,2.01022469646484));
#1425=CARTESIAN_POINT('',(1.14642607775423,13.9900256399649,1.84644660940674));
#1426=CARTESIAN_POINT('',(2.99287268708568,13.9900423128467,1.38777878078145E-14));
#1427=CARTESIAN_POINT('',(2.99288828995643,12.2620946073794,1.38777878078145E-14));
#1428=CARTESIAN_POINT('',(0.982653113655349,13.4226802252169,2.01022469646484));
#1429=CARTESIAN_POINT('',(0.573211738241198,12.9971685761351,1.84644660940674));
#1430=CARTESIAN_POINT('',(1.49644948204608,11.3981072421633,1.38777878078145E-14));
#1431=CARTESIAN_POINT('',(1.06741357142102E-5,10.5341198769472,1.38777878078145E-14));
#1432=CARTESIAN_POINT('',(-1.02857006709713E-5,12.8553274161238,2.01022469646484));
#1433=CARTESIAN_POINT('',(-0.573234871118785,12.997158224052,1.84644660940674));
#1434=CARTESIAN_POINT('',(-1.49644373664535,11.3980802171984,1.38777878078145E-14));
#1435=CARTESIAN_POINT('',(-2.99289814742645,12.2620405574496,1.38777878078145E-14));
#1436=CARTESIAN_POINT('',(-0.98268393096177,13.4226624787887,2.01022469646485));
#1437=CARTESIAN_POINT('',(-1.14646714096574,13.9900049357987,1.84644660940674));
#1438=CARTESIAN_POINT('',(-2.9929137502972,13.989988262917,6.93889390390723E-15));
#1439=CARTESIAN_POINT('',(-2.05316057441256E-5,86.1052075430143,1.38777878078145E-14));
#1440=CARTESIAN_POINT('',(3.71719532173441,8.5041226786142,1.38777878078145E-14));
#1441=CARTESIAN_POINT('',(4.60002103280787,9.3869643331561,6.93889390390723E-15));
#1442=CARTESIAN_POINT('',(3.83435304743933,8.62128252013936,6.93889390390723E-15));
#1443=CARTESIAN_POINT('',(-3.99995941197736,8.62128252013936,1.38777878078145E-14));
#1444=CARTESIAN_POINT('',(-3.83427610281739,8.62128252013936,1.38777878078145E-14));
#1445=CARTESIAN_POINT('',(-4.71713731304975,9.50412778655012,1.38777878078145E-14));
#1446=CARTESIAN_POINT('',(-4.59997896763242,9.38697155692601,6.93889390390723E-15));
#1447=CARTESIAN_POINT('',(-4.60004659795253,16.876725097036,1.38777878078145E-14));
#1448=CARTESIAN_POINT('',(-4.60004451262979,16.645784989369,6.93889390390723E-15));
#1449=CARTESIAN_POINT('',(0.199930463301692,19.4171096239856,2.08166817117217E-14));
#1450=CARTESIAN_POINT('',(-6.84940288570895E-5,19.3016377642099,6.93889390390723E-15));
#1451=CARTESIAN_POINT('',(4.79995652964828,16.530399814832,1.38777878078145E-14));
#1452=CARTESIAN_POINT('',(4.59995548699515,16.6458680627227,6.93889390390723E-15));
#1453=CARTESIAN_POINT('',(4.6000225288996,9.22127890821384,1.38777878078145E-14));
#1454=CARTESIAN_POINT('',(-2.05316057562687E-5,8.2212825201381,2.59999999999608));
#1455=CARTESIAN_POINT('',(-3.99995941197736,8.2212825201381,2.59999999999608));
#1456=CARTESIAN_POINT('',(-3.99995941197737,8.22128252013891,1.19999999999605));
#1457=CARTESIAN_POINT('',(-3.99995941197736,8.22128252013936,0.399999999999852));
#1458=CARTESIAN_POINT('',(4.00004058818571,8.22128252013936,0.399999999999783));
#1459=CARTESIAN_POINT('',(4.00004058818571,8.22128252013936,0.399999999999845));
#1460=CARTESIAN_POINT('',(4.00004058818571,8.2212825201381,2.59999999999607));
#1461=CARTESIAN_POINT('',(4.00004058818571,8.22128252013891,1.19999999999605));
#1462=CARTESIAN_POINT('',(-3.99995941197736,8.22128252013891,1.19999999999605));
#1463=CARTESIAN_POINT('',(-2.05316057580033E-5,10.3376875834977,1.79999999999725));
#1464=CARTESIAN_POINT('',(4.00004058818571,8.82128252013856,1.79999999999639));
#1465=CARTESIAN_POINT('',(-3.75143444823739,8.82128252013856,1.79999999999639));
#1466=CARTESIAN_POINT('',(3.75150927706609,8.82128252013856,1.79999999999639));
#1467=CARTESIAN_POINT('',(3.97576004705803,9.04553734000696,1.79999999999652));
#1468=CARTESIAN_POINT('',(4.40002028477016,9.4698052396841,1.79999999999678));
#1469=CARTESIAN_POINT('',(4.39995340168056,16.8768063644458,1.80000000000101));
#1470=CARTESIAN_POINT('',(4.39995652966468,16.5303962029462,1.80000000000081));
#1471=CARTESIAN_POINT('',(-0.300067972685963,19.2439000283787,1.80000000000236));
#1472=CARTESIAN_POINT('',(-6.64087061322977E-5,19.0706976565426,1.80000000000226));
#1473=CARTESIAN_POINT('',(-4.70004190597228,16.3571089518139,1.80000000000071));
#1474=CARTESIAN_POINT('',(-4.40004346997657,16.5303167414774,1.80000000000081));
#1475=CARTESIAN_POINT('',(-4.39999446489207,11.1032242113156,1.79999999999771));
#1476=CARTESIAN_POINT('',(-4.39997971568644,9.46981607533893,1.79999999999678));
#1477=CARTESIAN_POINT('',(-3.57569917426523,8.6455504198157,1.79999999999629));
#1478=CARTESIAN_POINT('',(3.33152761513118,16.107977911704,1.80000000000056));
#1479=CARTESIAN_POINT('',(-2.05316057580033E-5,18.0314882418119,1.80000000000165));
#1480=CARTESIAN_POINT('',(2.8999334310786,16.357164126303,1.8000000000007));
#1481=CARTESIAN_POINT('',(3.1999287390902,15.8375461751398,1.8000000000004));
#1482=CARTESIAN_POINT('',(3.49992404710179,15.3179282239766,1.80000000000014));
#1483=CARTESIAN_POINT('',(3.49987907667596,10.3376559804109,1.79999999999725));
#1484=CARTESIAN_POINT('',(3.49989380992199,11.9692966628133,1.79999999999819));
#1485=CARTESIAN_POINT('',(0.168430595456893,10.0459155884769,1.7999999999971));
#1486=CARTESIAN_POINT('',(0.599878691450321,10.2950070683975,1.79999999999724));
#1487=CARTESIAN_POINT('',(-2.05316057581118E-5,10.2950070683975,1.79999999999723));
#1488=CARTESIAN_POINT('',(-0.599919754661838,10.2950070683975,1.79999999999723));
#1489=CARTESIAN_POINT('',(-1.99992705323437,11.1032848036327,1.7999999999977));
#1490=CARTESIAN_POINT('',(-3.49993487313351,11.9692966628133,1.7999999999982));
#1491=CARTESIAN_POINT('',(-3.49995051305409,13.7013474703116,1.79999999999918));
#1492=CARTESIAN_POINT('',(-3.4999651103133,15.3179282239766,1.80000000000012));
#1493=CARTESIAN_POINT('',(-3.1999698023017,15.8375461751398,1.80000000000041));
#1494=CARTESIAN_POINT('',(-2.89997449429011,16.357164126303,1.80000000000072));
#1495=CARTESIAN_POINT('',(-1.49998179297679,17.1654671447328,1.80000000000116));
#1496=CARTESIAN_POINT('',(-1.49998179297679,17.1654671447461,-21.3999999999989));
#1497=CARTESIAN_POINT('',(-2.89997449429011,16.3571641263162,-21.3999999999993));
#1498=CARTESIAN_POINT('',(-2.89997449429011,16.3571641263025,2.6000000000007));
#1499=CARTESIAN_POINT('',(-2.89997449429011,16.3571641263162,-21.3999999999993));
#1500=CARTESIAN_POINT('',(-2.89997449429013,16.357164126301,5.40000000000072));
#1501=CARTESIAN_POINT('',(-1.49998179297679,17.1654671447308,5.40000000000119));
#1502=CARTESIAN_POINT('',(-2.05316057730635E-5,18.0314882418098,5.40000000000169));
#1503=CARTESIAN_POINT('',(-2.05316057580034E-5,18.0314882418251,-21.3999999999984));
#1504=CARTESIAN_POINT('',(-1.19996563173775,15.3756840192449,-21.4));
#1505=CARTESIAN_POINT('',(-1.19996563173775,15.3756840192312,2.60000000000014));
#1506=CARTESIAN_POINT('',(-2.05316057580034E-5,14.6829098394607,2.59999999999974));
#1507=CARTESIAN_POINT('',(-2.05316057580034E-5,14.6829098394744,-21.4000000000002));
#1508=CARTESIAN_POINT('',(-2.05316057566567E-5,14.6829098394591,5.39999999999978));
#1509=CARTESIAN_POINT('',(-2.89997449429011,16.3571641263009,5.40000000000073));
#1510=CARTESIAN_POINT('',(-0.599937479905165,12.2579979835754,-21.4000000000017));
#1511=CARTESIAN_POINT('',(-0.599919754661838,10.2950070684107,-21.4000000000027));
#1512=CARTESIAN_POINT('',(-0.599919754661838,10.295007068397,2.59999999999723));
#1513=CARTESIAN_POINT('',(-0.599919754661832,10.2950070683954,5.39999999999726));
#1514=CARTESIAN_POINT('',(-0.599937479905165,12.2579979835617,2.59999999999834));
#1515=CARTESIAN_POINT('',(-0.599949991841631,13.6436386295603,2.59999999999915));
#1516=CARTESIAN_POINT('',(-0.599949991841631,13.643638629574,-21.4000000000008));
#1517=CARTESIAN_POINT('',(-0.599949991841641,13.6436386295587,5.39999999999919));
#1518=CARTESIAN_POINT('',(-0.599919754661838,10.2950070683954,5.39999999999726));
#1519=CARTESIAN_POINT('',(-1.79995624776094,14.3364481169185,-21.4000000000004));
#1520=CARTESIAN_POINT('',(-1.79995624776094,14.3364481169048,2.59999999999954));
#1521=CARTESIAN_POINT('',(-3.49996511031329,15.3179282239761,2.60000000000011));
#1522=CARTESIAN_POINT('',(-3.4999651103133,15.3179282239899,-21.4));
#1523=CARTESIAN_POINT('',(-3.4999651103133,15.3179282239746,5.40000000000012));
#1524=CARTESIAN_POINT('',(-1.79995624776094,14.3364481169032,5.39999999999957));
#1525=CARTESIAN_POINT('',(-3.49995051305409,13.7013474703248,-21.4000000000008));
#1526=CARTESIAN_POINT('',(-3.49993487313351,11.9692966628266,-21.4000000000018));
#1527=CARTESIAN_POINT('',(-3.49993487313351,11.9692966628112,5.39999999999821));
#1528=CARTESIAN_POINT('',(-3.49995051305409,13.7013474703095,5.39999999999921));
#1529=CARTESIAN_POINT('',(-3.4999651103133,15.3179282239899,-21.4));
#1530=CARTESIAN_POINT('',(-1.99992705323437,11.103284803646,-21.4000000000023));
#1531=CARTESIAN_POINT('',(-0.599919754661838,10.2950070684107,-21.4000000000027));
#1532=CARTESIAN_POINT('',(-1.99992705323437,11.1032848036306,5.39999999999772));
#1533=CARTESIAN_POINT('',(1.49994072976528,17.1654671447461,-21.3999999999989));
#1534=CARTESIAN_POINT('',(2.8999334310786,16.3571641263162,-21.3999999999993));
#1535=CARTESIAN_POINT('',(2.89993343107861,16.3571641263025,2.6000000000007));
#1536=CARTESIAN_POINT('',(2.89993343107859,16.3571641263009,5.40000000000074));
#1537=CARTESIAN_POINT('',(2.8999334310786,16.3571641263162,-21.3999999999993));
#1538=CARTESIAN_POINT('',(1.49994072976528,17.1654671447308,5.40000000000119));
#1539=CARTESIAN_POINT('',(1.19992456852623,15.3756840192449,-21.4));
#1540=CARTESIAN_POINT('',(1.19992456852624,15.3756840192312,2.60000000000014));
#1541=CARTESIAN_POINT('',(-2.05316057586417E-5,14.6829098394591,5.39999999999978));
#1542=CARTESIAN_POINT('',(0.599896416693648,12.2579979835754,-21.4000000000017));
#1543=CARTESIAN_POINT('',(0.599908928630114,13.643638629574,-21.4000000000008));
#1544=CARTESIAN_POINT('',(0.599908928630114,13.6436386295603,2.59999999999915));
#1545=CARTESIAN_POINT('',(0.599908928630116,13.6436386295587,5.39999999999917));
#1546=CARTESIAN_POINT('',(0.599896416693648,12.2579979835617,2.59999999999835));
#1547=CARTESIAN_POINT('',(0.599878691450321,10.295007068397,2.59999999999723));
#1548=CARTESIAN_POINT('',(0.599878691450321,10.2950070684107,-21.4000000000027));
#1549=CARTESIAN_POINT('',(0.599878691450314,10.2950070683954,5.39999999999724));
#1550=CARTESIAN_POINT('',(0.599908928630114,13.6436386295588,5.39999999999917));
#1551=CARTESIAN_POINT('',(1.79991518454943,14.3364481169185,-21.4000000000004));
#1552=CARTESIAN_POINT('',(1.79991518454943,14.3364481169048,2.59999999999954));
#1553=CARTESIAN_POINT('',(3.49992404710178,15.3179282239761,2.6000000000001));
#1554=CARTESIAN_POINT('',(1.79991518454943,14.3364481169032,5.39999999999957));
#1555=CARTESIAN_POINT('',(3.49992404710177,15.3179282239746,5.40000000000013));
#1556=CARTESIAN_POINT('',(3.49992404710178,15.3179282239899,-21.4));
#1557=CARTESIAN_POINT('',(3.49990944984257,13.7013474703248,-21.4000000000008));
#1558=CARTESIAN_POINT('',(3.49990944984257,13.7013474703095,5.39999999999919));
#1559=CARTESIAN_POINT('',(3.49989380992199,11.9692966628112,5.3999999999982));
#1560=CARTESIAN_POINT('',(3.49989380992199,11.9692966628266,-21.4000000000018));
#1561=CARTESIAN_POINT('',(3.49992404710178,15.3179282239899,-21.4));
#1562=CARTESIAN_POINT('',(1.99988599002285,11.103284803646,-21.4000000000023));
#1563=CARTESIAN_POINT('',(0.599878691450321,10.2950070684107,-21.4000000000027));
#1564=CARTESIAN_POINT('',(1.99988599002285,11.1032848036306,5.39999999999771));
#1565=CARTESIAN_POINT('',(-2.05316057580034E-5,25.786890085123,5.60000000000612));
#1566=CARTESIAN_POINT('',(0.0999779043981083,14.85611582318,5.59999999999986));
#1567=CARTESIAN_POINT('',(-2.49997449430643,16.3571677381858,5.60000000000072));
#1568=CARTESIAN_POINT('',(-2.05316057564076E-5,14.9138487431889,5.59999999999989));
#1569=CARTESIAN_POINT('',(2.79993499507473,16.5303701100219,5.60000000000082));
#1570=CARTESIAN_POINT('',(2.49993343109491,16.3571677381858,5.60000000000073));
#1571=CARTESIAN_POINT('',(-3.45824461600303,19.79719517211,5.60000000000269));
#1572=CARTESIAN_POINT('',(-2.05316057589046E-5,17.8005469301565,5.60000000000155));
#1573=CARTESIAN_POINT('',(3.45820355279151,19.7971951721101,5.6000000000027));
#1574=CARTESIAN_POINT('',(-2.05316057580034E-5,25.786890085123,5.60000000000612));
#1575=CARTESIAN_POINT('',(-0.799949991833477,13.6436368236162,5.59999999999918));
#1576=CARTESIAN_POINT('',(-0.7999228826378,10.6414154239525,5.59999999999746));
#1577=CARTESIAN_POINT('',(-0.799948949172105,13.5281667697829,5.59999999999911));
#1578=CARTESIAN_POINT('',(-5.50812393790769,16.2463761825956,5.60000000000066));
#1579=CARTESIAN_POINT('',(-3.29996198233734,14.9715198684173,5.59999999999993));
#1580=CARTESIAN_POINT('',(-3.30005964175038,25.786860286719,5.60000000000612));
#1581=CARTESIAN_POINT('',(-3.29993591580304,12.0847685225868,5.59999999999828));
#1582=CARTESIAN_POINT('',(-6.75810438795601,14.0813013860823,5.59999999999943));
#1583=CARTESIAN_POINT('',(-2.05316057580034E-5,25.786890085123,5.60000000000612));
#1584=CARTESIAN_POINT('',(3.30001857853886,25.786860286719,5.60000000000612));
#1585=CARTESIAN_POINT('',(3.29989485259152,12.0847685225868,5.59999999999828));
#1586=CARTESIAN_POINT('',(3.29992091912582,14.9715198684173,5.59999999999993));
#1587=CARTESIAN_POINT('',(5.50808287469617,16.2463761825956,5.60000000000066));
#1588=CARTESIAN_POINT('',(0.799907885960588,13.5281667697829,5.59999999999911));
#1589=CARTESIAN_POINT('',(0.799878691442167,10.2950052624528,5.59999999999726));
#1590=CARTESIAN_POINT('',(0.799881819426284,10.6414154239525,5.59999999999746));
#1591=CARTESIAN_POINT('',(6.7580633247445,14.0813013860823,5.59999999999943));
#1592=CARTESIAN_POINT('',(-3.78157571628861,16.8873967117077,1.80000000000102));
#1593=CARTESIAN_POINT('',(-4.22333655504915,16.4282970840487,1.97670599371281));
#1594=CARTESIAN_POINT('',(-5.51435556813486E-5,17.8231329493088,2.88042272937441));
#1595=CARTESIAN_POINT('',(3.78143285795793,16.8874935645572,1.80000000000101));
#1596=CARTESIAN_POINT('',(2.86767635378333,15.6457153827645,3.33228816423251));
#1597=CARTESIAN_POINT('',(-4.39998755195777,10.3376478530611,1.79999999999726));
#1598=CARTESIAN_POINT('',(-4.23444700352395,9.53838372090444,1.96553333129866));
#1599=CARTESIAN_POINT('',(4.40001244768348,10.3377273145298,1.79999999999726));
#1600=CARTESIAN_POINT('',(4.23446911068232,9.53837702990427,1.96555055489435));
#1601=CARTESIAN_POINT('',(6.7580633247445,14.0813013860823,5.59999999999943));
#1602=CARTESIAN_POINT('',(3.18317927088682,14.7693216188146,7.98326017755773));
#1603=CARTESIAN_POINT('',(3.07132461564243,12.2167363623303,5.82857142856977));
#1604=CARTESIAN_POINT('',(3.49990944984257,13.7013474703095,5.39999999999919));
#1605=CARTESIAN_POINT('',(2.93991528876911,14.3479848284142,5.95999999999959));
#1606=CARTESIAN_POINT('',(0.800018578640781,25.7868828609999,5.60000000000612));
#1607=CARTESIAN_POINT('',(-2.23332188730638,15.2794393150079,2.5667544133693));
#1608=CARTESIAN_POINT('',(5.50808287469617,16.2463761825956,5.60000000000066));
#1609=CARTESIAN_POINT('',(-1.99992705323437,11.1032848036306,5.39999999999772));
#1610=CARTESIAN_POINT('',(0.0904348526970154,14.0422408174076,8.99038844377305));
#1611=CARTESIAN_POINT('',(-1.15992851299454,11.2649504639552,5.95999999999782));
#1612=CARTESIAN_POINT('',(-0.800059641852298,25.7868828609999,5.60000000000612));
#1613=CARTESIAN_POINT('',(2.23328082409504,15.279439315008,2.56675441336932));
#1614=CARTESIAN_POINT('',(-3.30005964175038,25.786860286719,5.60000000000612));
#1615=CARTESIAN_POINT('',(-7.0465643991155,21.4606902891875,1.85345617872052));
#1616=CARTESIAN_POINT('',(-5.50812393790769,16.2463761825956,5.60000000000066));
#1617=CARTESIAN_POINT('',(-1.49998179297679,17.1654671447308,5.40000000000119));
#1618=CARTESIAN_POINT('',(-2.05316057582203E-5,17.5366168321101,5.82856897811701));
#1619=CARTESIAN_POINT('',(-4.26649484935003,16.3571517870155,4.71673982244295));
#1620=CARTESIAN_POINT('',(-4.70813644987678,17.6320240523641,5.60000000000145));
#1621=CARTESIAN_POINT('',(-2.05316057580034E-5,16.4670848363276,6.94514892731714));
#1622=CARTESIAN_POINT('',(-3.45824461600303,19.79719517211,5.60000000000269));
#1623=CARTESIAN_POINT('',(-2.2666338561615,16.357210778916,7.98328364372601));
#1624=CARTESIAN_POINT('',(4.70809538666527,17.6320240523641,5.60000000000145));
#1625=CARTESIAN_POINT('',(-4.99997747152439,9.22128252009882,-0.00200000004396683));
#1626=CARTESIAN_POINT('',(-3.99995941197747,8.22128252013946,0.399999999999852));
#1627=CARTESIAN_POINT('',(-4.39997205372143,8.62128793795002,1.19999999999628));
#1628=CARTESIAN_POINT('',(5.00002252888329,9.22128252009882,-0.00200000004396683));
#1629=CARTESIAN_POINT('',(5.00002252888339,9.22128252009869,0.399999999999852));
#1630=CARTESIAN_POINT('',(4.00004058818571,8.22128252013891,1.19999999999604));
#1631=CARTESIAN_POINT('',(-2.63389614728887,7.70376440110663,1.79999999999575));
#1632=CARTESIAN_POINT('',(-3.87629852151358,8.51983013145998,1.49854761131746));
#1633=CARTESIAN_POINT('',(-2.05316057580033E-5,8.82128252013856,1.79999999999639));
#1634=CARTESIAN_POINT('',(3.45509928617852,9.53687040212922,2.51558788198788));
#1635=CARTESIAN_POINT('',(2.63398077952116,7.70373384048961,1.79999999999575));
#1636=CARTESIAN_POINT('',(-2.5000596313052,18.3201197323466,0.400000000000206));
#1637=CARTESIAN_POINT('',(-4.28575715988858,16.4643348855406,-0.314285714286148));
#1638=CARTESIAN_POINT('',(-6.52170931031009E-5,18.9387318807344,-0.314285714285566));
#1639=CARTESIAN_POINT('',(2.49994036849077,18.3201648809084,0.400000000000213));
#1640=CARTESIAN_POINT('',(4.28567141119078,16.4644122830758,-0.314285714285045));
#1641=CARTESIAN_POINT('',(-5.00002053140192,13.9899701393202,0.400000000000012));
#1642=CARTESIAN_POINT('',(-4.09038437372575,9.59805794003853,-0.509596499935219));
#1643=CARTESIAN_POINT('',(4.9999794681904,13.9900604364438,0.400000000000012));
#1644=CARTESIAN_POINT('',(14.3271761861971,5.35794764816937,9.72711877213093));
#1645=CARTESIAN_POINT('',(-40.6590762001064,45.4454175887282,1.38777878078145E-14));
#1646=CARTESIAN_POINT('',(0.280208862779274,18.5546547746161,-9.93337225447111));
#1647=CARTESIAN_POINT('',(40.6591633863271,45.4467578999224,1.38777878078145E-14));
#1648=CARTESIAN_POINT('',(-0.28040093843352,18.5550505447935,-9.93376802464851));
#1649=CARTESIAN_POINT('',(-2.05316057562687E-5,8.22128252013936,0.399999999999783));
#1650=CARTESIAN_POINT('',(-2.05316057580034E-5,14.1632476551042,2.59999999999944));
#1651=CARTESIAN_POINT('',(-2.05316057581119E-5,10.295007068397,2.59999999999723));
#1652=CARTESIAN_POINT('',(3.1999287390902,15.8375461751394,2.60000000000039));
#1653=CARTESIAN_POINT('',(-3.1999698023017,15.8375461751394,2.6000000000004));
#1654=CARTESIAN_POINT('',(-3.1999698023017,15.8375461751394,2.6100000000004));
#1655=CARTESIAN_POINT('',(-2.05316057581119E-5,10.295007068397,2.60999999999723));
#1656=CARTESIAN_POINT('',(3.1999287390902,15.8375461751394,2.6100000000004));
#1657=MECHANICAL_DESIGN_GEOMETRIC_PRESENTATION_REPRESENTATION('',(#1038),
#1658);
#1658=(
GEOMETRIC_REPRESENTATION_CONTEXT(3)
GLOBAL_UNCERTAINTY_ASSIGNED_CONTEXT((#1659))
GLOBAL_UNIT_ASSIGNED_CONTEXT((#1662,#1661,#1660))
REPRESENTATION_CONTEXT('[t]_LED_diffuser','TOP_LEVEL_ASSEMBLY_PART')
);
#1659=UNCERTAINTY_MEASURE_WITH_UNIT(LENGTH_MEASURE(1.E-5),#1662,
'DISTANCE_ACCURACY_VALUE','Maximum Tolerance applied to model');
#1660=(
NAMED_UNIT(*)
SI_UNIT($,.STERADIAN.)
SOLID_ANGLE_UNIT()
);
#1661=(
NAMED_UNIT(*)
PLANE_ANGLE_UNIT()
SI_UNIT($,.RADIAN.)
);
#1662=(
LENGTH_UNIT()
NAMED_UNIT(*)
SI_UNIT(.MILLI.,.METRE.)
);
#1663=PRODUCT_DEFINITION_SHAPE('','',#1664);
#1664=PRODUCT_DEFINITION('','',#1666,#1665);
#1665=PRODUCT_DEFINITION_CONTEXT('',#1672,'design');
#1666=PRODUCT_DEFINITION_FORMATION_WITH_SPECIFIED_SOURCE('','',#1668,
 .NOT_KNOWN.);
#1667=PRODUCT_RELATED_PRODUCT_CATEGORY('','',(#1668));
#1668=PRODUCT('[t]_LED_diffuser','[t]_LED_diffuser','[t]_LED_diffuser',
(#1670));
#1669=PRODUCT_CATEGORY('','');
#1670=PRODUCT_CONTEXT('',#1672,'mechanical');
#1671=APPLICATION_PROTOCOL_DEFINITION('international standard',
'ap242_managed_model_based_3d_engineering',2020,#1672);
#1672=APPLICATION_CONTEXT('managed model based 3d engineering');
ENDSEC;
END-ISO-10303-21;
